<svg width="1024" height="1024" viewBox="0 0 1024 1024" fill="none" xmlns="http://www.w3.org/2000/svg">
<rect width="1024" height="1024" fill="#312E38"/>
<g clip-path="url(#clip0)">
<path d="M309.113 707.697V704.752H321.259V707.697L317.473 708.348V720.01H333.87V708.348L330.084 707.697V704.752H342.231V707.697L338.445 708.348V734.943L342.231 735.592V738.513H330.084V735.592L333.87 734.943V723.603H317.473V734.943L321.259 735.592V738.513H309.113V735.592L312.898 734.943V708.348L309.113 707.697Z" fill="#999591"/>
<path d="M362.482 738.514C362.343 737.833 362.234 737.223 362.157 736.681C362.079 736.14 362.025 735.598 361.994 735.057C361.112 736.185 360.005 737.129 358.673 737.888C357.357 738.63 355.948 739 354.447 739C351.83 739 349.84 738.368 348.478 737.1C347.116 735.815 346.434 734.016 346.434 731.697C346.434 729.317 347.394 727.485 349.314 726.2C351.249 724.903 353.897 724.255 357.257 724.255H361.971V721.333C361.971 719.864 361.507 718.703 360.578 717.853C359.649 716.987 358.356 716.556 356.699 716.556C355.554 716.556 354.539 716.702 353.657 716.997C352.79 717.289 352.085 717.691 351.543 718.2L351.056 720.843H347.526V715.976C348.672 715.064 350.057 714.338 351.683 713.796C353.308 713.239 355.073 712.96 356.978 712.96C359.827 712.96 362.134 713.686 363.899 715.142C365.664 716.595 366.546 718.674 366.546 721.378V733.458C366.546 733.782 366.546 734.1 366.546 734.408C366.562 734.719 366.585 735.027 366.616 735.336L368.474 735.592V738.514H362.482ZM355.12 735.173C356.637 735.173 358.023 734.81 359.277 734.084C360.531 733.357 361.429 732.485 361.971 731.464V727.335H357.094C355.221 727.335 353.734 727.77 352.635 728.636C351.551 729.502 351.009 730.552 351.009 731.788C351.009 732.887 351.35 733.73 352.031 734.317C352.712 734.888 353.742 735.173 355.12 735.173Z" fill="#999591"/>
<path d="M372.283 735.592L376.068 734.943V717.02L372.283 716.368V713.424H380.643V734.943L384.429 735.592V738.514H372.283V735.592ZM380.643 707.003H376.068V702.343H380.643V707.003Z" fill="#999591"/>
<path d="M387.936 716.368V713.424H395.809L396.25 717.065C396.962 715.781 397.837 714.779 398.875 714.049C399.927 713.323 401.127 712.96 402.474 712.96C402.83 712.96 403.194 712.992 403.566 713.054C403.953 713.099 404.247 713.154 404.448 713.216L403.845 717.461L401.243 717.321C400.036 717.321 399.022 717.607 398.201 718.178C397.38 718.735 396.746 719.523 396.297 720.545V734.943L400.082 735.592V738.514H387.936V735.592L391.722 734.943V717.02L387.936 716.368Z" fill="#999591"/>
<path d="M418.453 735.43C419.97 735.43 421.301 734.966 422.447 734.038C423.609 733.095 424.189 731.944 424.189 730.582H428.3L428.346 730.721C428.424 732.887 427.456 734.81 425.443 736.496C423.446 738.167 421.116 739 418.453 739C414.799 739 412.004 737.81 410.069 735.43C408.149 733.049 407.189 730.056 407.189 726.457V725.48C407.189 721.91 408.156 718.936 410.092 716.556C412.027 714.16 414.814 712.96 418.453 712.96C420.465 712.96 422.269 713.294 423.864 713.959C425.474 714.623 426.806 715.535 427.858 716.696L428.067 722.26H424.421L423.423 718.317C422.881 717.792 422.184 717.367 421.333 717.043C420.481 716.718 419.521 716.556 418.453 716.556C416.053 716.556 414.334 717.422 413.297 719.15C412.275 720.869 411.764 722.977 411.764 725.48V726.457C411.764 729.022 412.275 731.162 413.297 732.877C414.319 734.58 416.037 735.43 418.453 735.43Z" fill="#999591"/>
<path d="M450.781 734.804C449.99 736.15 448.969 737.184 447.715 737.911C446.477 738.637 445.044 739 443.419 739C440.694 739 438.565 738.128 437.032 736.38C435.499 734.632 434.733 731.911 434.733 728.218V717.02L431.853 716.368V713.424H439.308V728.263C439.308 730.938 439.703 732.777 440.492 733.782C441.282 734.788 442.513 735.29 444.185 735.29C445.811 735.29 447.15 734.966 448.204 734.317C449.271 733.653 450.078 732.715 450.619 731.512V717.02L447.251 716.368V713.424H455.193V734.943L458.072 735.592V738.514H451.083L450.781 734.804Z" fill="#999591"/>
<path d="M469.687 707.372V713.424H474.445V716.809H469.687V732.044C469.687 733.218 469.926 734.045 470.406 734.525C470.902 735.005 471.55 735.245 472.358 735.245C472.76 735.245 473.207 735.212 473.703 735.151C474.215 735.073 474.64 734.995 474.98 734.921L475.609 738.05C475.175 738.329 474.539 738.552 473.703 738.721C472.867 738.906 472.03 739 471.194 739C469.336 739 467.858 738.442 466.759 737.33C465.66 736.201 465.109 734.441 465.109 732.044V716.809H461.138V713.424H465.109V707.372H469.687Z" fill="#999591"/>
<path d="M498.343 721.307H494.907L494.164 718.294C493.607 717.769 492.903 717.351 492.051 717.043C491.214 716.718 490.261 716.556 489.195 716.556C487.568 716.556 486.362 716.91 485.571 717.623C484.78 718.333 484.387 719.189 484.387 720.195C484.387 721.184 484.734 721.965 485.431 722.536C486.128 723.11 487.545 723.619 489.681 724.067C492.855 724.748 495.218 725.675 496.764 726.849C498.314 728.01 499.088 729.57 499.088 731.535C499.088 733.76 498.181 735.559 496.369 736.938C494.573 738.312 492.219 739 489.308 739C487.405 739 485.694 738.783 484.177 738.351C482.66 737.904 481.305 737.262 480.112 736.425L480.089 730.698H483.528L484.387 734.061C484.913 734.541 485.626 734.888 486.524 735.105C487.438 735.323 488.365 735.43 489.308 735.43C490.936 735.43 492.206 735.105 493.117 734.457C494.048 733.792 494.511 732.926 494.511 731.859C494.511 730.854 494.125 730.027 493.351 729.378C492.592 728.727 491.143 728.166 489.007 727.686C485.956 727.021 483.658 726.116 482.112 724.971C480.562 723.827 479.788 722.283 479.788 720.334C479.788 718.294 480.656 716.556 482.391 715.116C484.138 713.68 486.407 712.96 489.195 712.96C491.098 712.96 492.809 713.21 494.326 713.702C495.843 714.199 497.105 714.886 498.113 715.768L498.343 721.307Z" fill="#999591"/>
<path d="M514.856 729.424C514.856 727.536 515.397 725.892 516.483 724.485C517.582 723.061 519.216 721.641 521.381 720.217C520.175 718.687 519.277 717.328 518.688 716.138C518.101 714.931 517.806 713.696 517.806 712.428C517.806 709.814 518.558 707.807 520.059 706.4C521.576 704.976 523.657 704.266 526.305 704.266C528.753 704.266 530.743 704.969 532.273 706.377C533.807 707.784 534.575 709.477 534.575 711.455C534.575 712.97 534.163 714.283 533.343 715.395C532.539 716.495 531.336 717.623 529.745 718.781L527.213 720.636L535.107 730.118C535.742 729.116 536.238 728 536.594 726.781C536.951 725.558 537.129 724.268 537.129 722.909H541.217C541.217 724.932 540.916 726.81 540.309 728.542C539.706 730.273 538.831 731.827 537.687 733.202L541.982 738.397L541.937 738.514H536.617L534.643 736.15C533.405 737.077 532.033 737.787 530.533 738.28C529.032 738.76 527.476 739 525.865 739C522.506 739 519.825 738.111 517.828 736.334C515.848 734.557 514.856 732.252 514.856 729.424ZM525.865 735.43C526.98 735.43 528.079 735.245 529.161 734.872C530.247 734.486 531.268 733.938 532.228 733.228L523.845 723.139L522.915 723.814C521.508 724.864 520.571 725.87 520.104 726.826C519.657 727.786 519.433 728.652 519.433 729.424C519.433 731.172 519.981 732.608 521.08 733.737C522.179 734.865 523.774 735.43 525.865 735.43ZM522.38 712.383C522.38 713.2 522.59 714.059 523.009 714.954C523.427 715.836 524.052 716.803 524.889 717.853L528.095 715.651C528.977 715.064 529.573 714.429 529.884 713.751C530.208 713.054 530.37 712.289 530.37 711.455C530.37 710.511 529.991 709.675 529.233 708.948C528.49 708.222 527.515 707.859 526.305 707.859C525.051 707.859 524.085 708.3 523.404 709.182C522.723 710.048 522.38 711.115 522.38 712.383Z" fill="#999591"/>
<path d="M581.07 714.724H577.608L576.749 709.902C576.052 709.312 575.125 708.825 573.961 708.439C572.801 708.053 571.455 707.859 569.922 707.859C567.491 707.859 565.624 708.378 564.324 709.412C563.024 710.434 562.372 711.77 562.372 713.424C562.372 714.893 563.03 716.122 564.346 717.111C565.679 718.087 567.825 718.943 570.781 719.686C574.34 720.568 577.044 721.865 578.885 723.58C580.743 725.296 581.673 727.423 581.673 729.956C581.673 732.676 580.558 734.865 578.328 736.519C576.114 738.173 573.212 739 569.621 739C567.018 739 564.703 738.575 562.677 737.726C560.664 736.876 559.02 735.76 557.753 734.385V728.101H561.189L562.071 732.949C562.953 733.675 564.006 734.269 565.231 734.732C566.454 735.196 567.915 735.43 569.621 735.43C571.925 735.43 573.744 734.943 575.076 733.967C576.425 732.994 577.099 731.674 577.099 730.004C577.099 728.457 576.516 727.167 575.355 726.132C574.195 725.082 572.143 724.2 569.202 723.489C565.624 722.637 562.829 721.385 560.816 719.731C558.803 718.077 557.798 715.998 557.798 713.495C557.798 710.852 558.92 708.657 561.166 706.909C563.41 705.148 566.33 704.266 569.922 704.266C572.292 704.266 574.441 704.674 576.376 705.495C578.328 706.299 579.893 707.282 581.07 708.439V714.724Z" fill="#999591"/>
<path d="M585.365 735.592L589.152 734.943V705.936L585.365 705.287V702.343H593.726V716.764C594.594 715.557 595.654 714.623 596.909 713.959C598.164 713.294 599.554 712.96 601.088 712.96C603.781 712.96 605.872 713.764 607.36 715.373C608.845 716.981 609.587 719.452 609.587 722.792V734.943L613.373 735.592V738.514H601.227V735.592L605.013 734.943V722.747C605.013 720.675 604.566 719.144 603.665 718.155C602.783 717.166 601.46 716.67 599.694 716.67C598.442 716.67 597.295 716.971 596.257 717.574C595.236 718.161 594.393 718.966 593.726 719.987V734.943L597.512 735.592V738.514H585.365V735.592Z" fill="#999591"/>
<path d="M633.092 738.514C632.953 737.833 632.843 737.223 632.765 736.681C632.687 736.14 632.635 735.598 632.603 735.057C631.721 736.185 630.613 737.129 629.283 737.888C627.967 738.63 626.557 739 625.056 739C622.44 739 620.45 738.368 619.088 737.1C617.724 735.815 617.043 734.016 617.043 731.697C617.043 729.317 618.002 727.485 619.925 726.2C621.86 724.903 624.505 724.255 627.867 724.255H632.58V721.333C632.58 719.864 632.117 718.703 631.186 717.853C630.259 716.987 628.966 716.556 627.309 716.556C626.162 716.556 625.147 716.702 624.265 716.997C623.4 717.289 622.693 717.691 622.152 718.2L621.666 720.843H618.135V715.976C619.28 715.064 620.667 714.338 622.291 713.796C623.919 713.239 625.682 712.96 627.588 712.96C630.438 712.96 632.742 713.686 634.509 715.142C636.273 716.595 637.154 718.674 637.154 721.378V733.458C637.154 733.782 637.154 734.1 637.154 734.408C637.17 734.719 637.193 735.027 637.226 735.336L639.083 735.592V738.514H633.092ZM625.731 735.173C627.248 735.173 628.632 734.81 629.886 734.084C631.141 733.357 632.039 732.485 632.58 731.464V727.335H627.705C625.831 727.335 624.343 727.77 623.244 728.636C622.162 729.502 621.617 730.552 621.617 731.788C621.617 732.887 621.961 733.73 622.641 734.317C623.322 734.888 624.353 735.173 625.731 735.173Z" fill="#999591"/>
<path d="M651.136 716.368L648.118 716.832L653.298 731.117L653.716 732.926H653.855L654.296 731.117L659.311 716.832L656.27 716.368V713.424H665.976V716.368L663.911 716.718L655.479 738.514H652.021L643.495 716.718L641.43 716.368V713.424H651.136V716.368Z" fill="#999591"/>
<path d="M680.236 739C676.738 739 673.95 737.839 671.876 735.52C669.817 733.189 668.786 730.166 668.786 726.457V725.435C668.786 721.865 669.846 718.898 671.97 716.533C674.106 714.15 676.628 712.96 679.539 712.96C682.914 712.96 685.471 713.981 687.202 716.021C688.953 718.061 689.828 720.782 689.828 724.183V727.037H673.526L673.454 727.151C673.503 729.563 674.112 731.548 675.289 733.111C676.466 734.658 678.116 735.43 680.236 735.43C681.785 735.43 683.14 735.212 684.301 734.781C685.478 734.33 686.492 733.721 687.342 732.949L689.131 735.916C688.233 736.782 687.04 737.515 685.556 738.118C684.084 738.705 682.311 739 680.236 739ZM679.539 716.556C678.006 716.556 676.699 717.205 675.617 718.502C674.531 719.786 673.866 721.401 673.616 723.35L673.665 723.463H685.254V722.864C685.254 721.07 684.774 719.569 683.815 718.362C682.852 717.159 681.429 716.556 679.539 716.556Z" fill="#999591"/>
<path d="M713.586 721.307H710.15L709.408 718.294C708.85 717.769 708.144 717.351 707.294 717.043C706.458 716.718 705.505 716.556 704.435 716.556C702.811 716.556 701.602 716.91 700.814 717.623C700.023 718.333 699.628 719.189 699.628 720.195C699.628 721.184 699.978 721.965 700.675 722.536C701.372 723.11 702.788 723.619 704.925 724.067C708.098 724.748 710.458 725.675 712.008 726.849C713.557 728.01 714.329 729.57 714.329 731.535C714.329 733.76 713.424 735.559 711.612 736.938C709.816 738.312 707.463 739 704.552 739C702.649 739 700.937 738.783 699.42 738.351C697.903 737.904 696.548 737.262 695.355 736.425L695.332 730.698H698.769L699.628 734.061C700.156 734.541 700.866 734.888 701.767 735.105C702.678 735.323 703.608 735.43 704.552 735.43C706.179 735.43 707.447 735.105 708.361 734.457C709.291 733.792 709.755 732.926 709.755 731.859C709.755 730.854 709.369 730.027 708.594 729.378C707.836 728.727 706.387 728.166 704.25 727.686C701.2 727.021 698.902 726.116 697.352 724.971C695.806 723.827 695.031 722.283 695.031 720.334C695.031 718.294 695.897 716.556 697.631 715.116C699.381 713.68 701.65 712.96 704.435 712.96C706.341 712.96 708.053 713.21 709.57 713.702C711.087 714.199 712.348 714.886 713.353 715.768L713.586 721.307Z" fill="#999591"/>
<path d="M404.193 315.838L406.701 315.491L418.522 285H422.447L434.059 315.491L436.544 315.838V318.76H426.837V315.838L429.391 315.398L427.162 309.184H413.622L411.323 315.398L413.877 315.838V318.76H404.193V315.838ZM415.038 305.358H425.768L420.519 290.866H420.38L415.038 305.358Z" fill="#999591"/>
<path d="M445.857 296.617L442.977 297.127L446.252 309.624L446.786 312.662H446.926L447.575 309.624L452.593 293.672H456.263L461.3 309.624L462.02 313.01H462.159L462.834 309.624L465.923 297.127L462.996 296.617V293.672H472.565V296.617L470.383 296.941L464.043 318.76H460.351L455.472 303.48L454.428 299.26L454.289 299.283L453.313 303.48L448.528 318.76H444.835L438.495 296.941L436.289 296.617V293.672H445.857V296.617Z" fill="#999591"/>
<path d="M487.752 319.247C484.255 319.247 481.467 318.088 479.392 315.769C477.334 313.435 476.303 310.413 476.303 306.703V305.683C476.303 302.112 477.366 299.144 479.486 296.779C481.622 294.398 484.148 293.208 487.059 293.208C490.433 293.208 492.988 294.228 494.722 296.269C496.469 298.309 497.344 301.03 497.344 304.43V307.282H481.042L480.971 307.398C481.019 309.81 481.629 311.796 482.806 313.357C483.982 314.903 485.632 315.676 487.752 315.676C489.302 315.676 490.657 315.46 491.817 315.027C492.994 314.579 494.009 313.968 494.861 313.195L496.648 316.163C495.75 317.029 494.56 317.763 493.072 318.366C491.6 318.953 489.827 319.247 487.752 319.247ZM487.059 296.802C485.525 296.802 484.216 297.451 483.133 298.75C482.047 300.033 481.382 301.648 481.136 303.596L481.181 303.712H492.77V303.109C492.77 301.316 492.291 299.816 491.331 298.611C490.372 297.405 488.945 296.802 487.059 296.802Z" fill="#999591"/>
<path d="M521.103 301.555H517.666L516.924 298.541C516.366 298.016 515.663 297.598 514.81 297.289C513.974 296.964 513.021 296.802 511.955 296.802C510.327 296.802 509.121 297.158 508.33 297.869C507.539 298.58 507.147 299.438 507.147 300.442C507.147 301.432 507.494 302.212 508.191 302.784C508.888 303.356 510.305 303.866 512.441 304.315C515.614 304.995 517.978 305.922 519.524 307.097C521.073 308.256 521.848 309.818 521.848 311.781C521.848 314.007 520.94 315.807 519.128 317.183C517.332 318.559 514.979 319.247 512.068 319.247C510.165 319.247 508.454 319.031 506.936 318.598C505.419 318.149 504.064 317.508 502.871 316.673L502.849 310.946H506.288L507.147 314.308C507.672 314.787 508.386 315.135 509.283 315.351C510.198 315.568 511.125 315.676 512.068 315.676C513.695 315.676 514.966 315.351 515.877 314.702C516.807 314.038 517.271 313.172 517.271 312.105C517.271 311.101 516.885 310.274 516.11 309.624C515.352 308.975 513.903 308.411 511.767 307.932C508.716 307.267 506.418 306.363 504.872 305.219C503.322 304.075 502.547 302.529 502.547 300.582C502.547 298.541 503.416 296.802 505.15 295.364C506.898 293.927 509.167 293.208 511.955 293.208C513.857 293.208 515.569 293.455 517.086 293.95C518.603 294.445 519.864 295.133 520.872 296.014L521.103 301.555Z" fill="#999591"/>
<path d="M526.143 305.984C526.143 302.274 527.152 299.221 529.161 296.825C531.175 294.414 533.907 293.208 537.36 293.208C540.828 293.208 543.571 294.406 545.584 296.802C547.61 299.198 548.624 302.259 548.624 305.984V306.494C548.624 310.235 547.62 313.296 545.606 315.676C543.593 318.057 540.861 319.247 537.408 319.247C533.923 319.247 531.175 318.057 529.161 315.676C527.152 313.28 526.143 310.219 526.143 306.494V305.984ZM530.717 306.494C530.717 309.153 531.275 311.348 532.39 313.079C533.521 314.81 535.194 315.676 537.408 315.676C539.574 315.676 541.224 314.81 542.355 313.079C543.483 311.348 544.05 309.153 544.05 306.494V305.984C544.05 303.356 543.483 301.169 542.355 299.422C541.224 297.675 539.561 296.802 537.36 296.802C535.162 296.802 533.505 297.675 532.39 299.422C531.275 301.169 530.717 303.356 530.717 305.984V306.494Z" fill="#999591"/>
<path d="M551.921 315.838L555.707 315.189V297.266L551.921 296.617V293.672H559.818L560.119 296.941C560.926 295.751 561.964 294.831 563.231 294.182C564.502 293.533 565.974 293.208 567.646 293.208C569.316 293.208 570.749 293.595 571.942 294.367C573.151 295.14 574.055 296.3 574.658 297.845C575.449 296.423 576.493 295.295 577.793 294.46C579.096 293.625 580.613 293.208 582.347 293.208C584.918 293.208 586.944 294.089 588.432 295.851C589.917 297.598 590.659 300.234 590.659 303.758V315.189L594.445 315.838V318.76H582.276V315.838L586.062 315.189V303.712C586.062 301.238 585.638 299.492 584.785 298.472C583.933 297.436 582.672 296.918 580.999 296.918C579.404 296.918 578.12 297.482 577.145 298.611C576.185 299.724 575.627 301.13 575.472 302.831V315.189L579.258 315.838V318.76H567.112V315.838L570.898 315.189V303.712C570.898 301.362 570.457 299.646 569.572 298.564C568.706 297.467 567.445 296.918 565.789 296.918C564.395 296.918 563.248 297.204 562.35 297.776C561.452 298.348 560.764 299.152 560.285 300.187V315.189L564.068 315.838V318.76H551.921V315.838Z" fill="#999591"/>
<path d="M609.03 319.247C605.532 319.247 602.744 318.088 600.669 315.769C598.611 313.435 597.58 310.413 597.58 306.703V305.683C597.58 302.112 598.643 299.144 600.763 296.779C602.9 294.398 605.425 293.208 608.336 293.208C611.71 293.208 614.265 294.228 615.999 296.269C617.746 298.309 618.622 301.03 618.622 304.43V307.282H602.319L602.248 307.398C602.297 309.81 602.906 311.796 604.083 313.357C605.26 314.903 606.91 315.676 609.03 315.676C610.579 315.676 611.934 315.46 613.095 315.027C614.271 314.579 615.286 313.968 616.139 313.195L617.925 316.163C617.027 317.029 615.837 317.763 614.349 318.366C612.877 318.953 611.104 319.247 609.03 319.247ZM608.336 296.802C606.803 296.802 605.493 297.451 604.41 298.75C603.324 300.033 602.66 301.648 602.413 303.596L602.459 303.712H614.048V303.109C614.048 301.316 613.568 299.816 612.608 298.611C611.649 297.405 610.223 296.802 608.336 296.802Z" fill="#999591"/>
<path d="M901 644.38H123V651.164H901V644.38Z" fill="#FF9000"/>
<path d="M901 373.03H123V379.814H901V373.03Z" fill="#FF9000"/>
<path d="M303.197 504.554V552.231C303.197 556.282 302.373 560.145 300.724 563.817C299.202 567.363 297.109 570.465 294.445 573.125C291.782 575.784 288.611 577.873 284.933 579.393C281.381 581.039 277.576 581.862 273.517 581.862C269.459 581.862 265.654 581.102 262.102 579.583C258.551 578.063 255.443 576.037 252.78 573.504C250.116 570.845 247.96 567.806 246.311 564.387C244.789 560.841 243.965 557.042 243.838 552.99V517.85C243.457 513.925 241.682 511.075 238.511 509.303C240.287 508.416 242.062 507.973 243.838 507.973V463.146C243.965 459.094 244.789 455.295 246.311 451.749C247.96 448.204 250.116 445.164 252.78 442.632C255.443 439.973 258.551 437.883 262.102 436.364C265.654 434.844 269.459 434.084 273.517 434.084C277.576 434.084 281.381 434.907 284.933 436.553C288.611 438.073 291.782 440.162 294.445 442.822C297.109 445.481 299.202 448.647 300.724 452.319C302.373 455.864 303.197 459.727 303.197 463.905C303.197 466.058 303.387 467.641 303.768 468.654C304.275 469.667 304.783 470.49 305.29 471.123C305.797 471.757 306.241 472.327 306.622 472.833C307.129 473.34 307.383 474.163 307.383 475.303H297.49C295.46 475.049 294.445 473.973 294.445 472.073C294.445 473.973 293.431 475.049 291.401 475.303H281.318C281.318 474.163 281.508 473.34 281.889 472.833C282.396 472.327 282.903 471.757 283.411 471.123C283.918 470.49 284.362 469.667 284.743 468.654C285.25 467.641 285.503 465.995 285.503 463.716V463.526C285.503 461.88 285.44 459.917 285.313 457.637C285.186 455.231 284.743 452.952 283.981 450.799C283.22 448.647 282.015 446.81 280.367 445.291C278.718 443.771 276.435 443.011 273.517 443.011C270.473 443.011 268.127 443.835 266.478 445.481C264.956 447 263.815 448.837 263.054 450.989C262.292 453.142 261.849 455.422 261.722 457.827C261.595 460.233 261.532 462.259 261.532 463.905V507.973C263.307 507.973 265.083 508.416 266.859 509.303C263.688 511.075 261.912 513.925 261.532 517.85V552.231C261.532 553.877 261.595 555.903 261.722 558.309C261.849 560.588 262.292 562.867 263.054 565.147C263.815 567.299 264.956 569.136 266.478 570.655C268.127 572.175 270.473 572.935 273.517 572.935C276.562 572.935 278.845 572.175 280.367 570.655C282.015 569.136 283.22 567.299 283.981 565.147C284.743 562.867 285.186 560.588 285.313 558.309C285.44 555.903 285.503 553.877 285.503 552.231V513.292C284.108 513.418 282.903 513.988 281.889 515.001C281.001 516.014 280.557 517.217 280.557 518.61V518.8C280.43 520.699 279.923 522.346 279.035 523.738C278.274 525.005 277.132 526.145 275.61 527.157C274.088 528.044 271.869 528.487 268.952 528.487V504.554H303.197ZM254.112 499.046C254.112 498.286 254.048 497.526 253.922 496.766C253.922 496.007 253.922 495.31 253.922 494.677V490.308C253.795 487.522 253.731 484.863 253.731 482.33C253.731 479.798 253.668 477.392 253.541 475.112C253.414 473.973 253.351 472.96 253.351 472.073C253.351 471.06 253.287 470.047 253.16 469.034C253.16 468.148 253.097 467.325 252.97 466.565C252.97 465.678 252.97 464.919 252.97 464.286C252.97 463.652 252.907 463.082 252.78 462.576C252.78 462.069 252.78 461.626 252.78 461.246V460.297C252.653 460.297 252.59 460.36 252.59 460.487V461.246C252.59 461.626 252.526 462.069 252.4 462.576C252.4 463.082 252.4 463.652 252.4 464.286C252.4 464.919 252.336 465.678 252.209 466.565C252.209 467.325 252.209 468.148 252.209 469.034C252.082 470.047 252.019 471.06 252.019 472.073C252.019 472.96 251.955 473.973 251.829 475.112C251.702 477.392 251.638 479.798 251.638 482.33C251.638 484.863 251.575 487.522 251.448 490.308V494.677C251.448 495.31 251.385 496.007 251.258 496.766C251.258 497.526 251.258 498.286 251.258 499.046V516.711C251.258 517.09 251.258 517.47 251.258 517.85C251.385 518.23 251.448 518.547 251.448 518.8V525.258C251.448 526.651 251.448 528.044 251.448 529.437C251.575 530.703 251.638 531.969 251.638 533.236C251.638 534.629 251.638 535.959 251.638 537.225C251.765 538.364 251.829 539.441 251.829 540.454C251.955 541.593 252.019 542.67 252.019 543.683C252.019 544.696 252.082 545.646 252.209 546.532C252.209 547.545 252.209 548.432 252.209 549.191C252.336 549.951 252.4 550.647 252.4 551.281C252.4 551.914 252.4 552.484 252.4 552.99C252.526 553.497 252.59 553.94 252.59 554.32V555.269C252.59 555.396 252.653 555.459 252.78 555.459V554.32C252.78 553.94 252.78 553.497 252.78 552.99C252.907 552.484 252.97 551.914 252.97 551.281C252.97 550.647 252.97 549.951 252.97 549.191C253.097 548.432 253.16 547.545 253.16 546.532C253.287 545.646 253.351 544.696 253.351 543.683C253.351 542.67 253.414 541.593 253.541 540.454C253.541 539.441 253.541 538.364 253.541 537.225C253.668 535.959 253.731 534.629 253.731 533.236C253.731 531.969 253.731 530.703 253.731 529.437C253.858 528.044 253.922 526.651 253.922 525.258V521.079C253.922 520.066 253.985 519.306 254.112 518.8V499.046ZM295.587 526.588C295.46 525.321 295.397 524.182 295.397 523.169C295.397 522.029 295.333 520.953 295.206 519.94C295.08 518.04 294.889 516.457 294.636 515.191C294.636 514.938 294.572 514.684 294.445 514.431C294.445 514.178 294.445 513.988 294.445 513.861V513.292L294.255 513.482V513.861C294.255 513.988 294.192 514.178 294.065 514.431C294.065 514.684 294.065 514.938 294.065 515.191C293.811 516.457 293.621 518.04 293.494 519.94C293.367 520.953 293.304 522.029 293.304 523.169C293.304 524.182 293.24 525.321 293.114 526.588V528.487C293.114 528.867 293.05 529.247 292.923 529.627C292.923 529.88 292.923 530.133 292.923 530.387V538.364C292.923 538.744 292.987 539.061 293.114 539.314V542.163C293.114 542.796 293.114 543.366 293.114 543.873C293.24 544.379 293.304 544.949 293.304 545.582C293.304 546.215 293.304 546.785 293.304 547.292C293.431 547.798 293.494 548.305 293.494 548.811C293.621 549.318 293.684 549.824 293.684 550.331C293.684 550.711 293.748 551.091 293.875 551.471C293.875 551.85 293.875 552.231 293.875 552.61C294.001 552.99 294.065 553.307 294.065 553.56C294.065 553.813 294.065 554.067 294.065 554.32C294.192 554.573 294.255 554.763 294.255 554.89V555.269C294.255 555.396 294.319 555.459 294.445 555.459V554.89C294.445 554.763 294.445 554.573 294.445 554.32C294.572 554.067 294.636 553.813 294.636 553.56C294.636 553.307 294.636 552.99 294.636 552.61C294.763 552.231 294.826 551.85 294.826 551.471C294.953 551.091 295.016 550.711 295.016 550.331C295.016 549.824 295.08 549.318 295.206 548.811C295.206 548.305 295.206 547.798 295.206 547.292C295.333 546.785 295.397 546.215 295.397 545.582C295.397 544.949 295.397 544.379 295.397 543.873C295.523 543.366 295.587 542.796 295.587 542.163V540.264C295.587 539.757 295.65 539.441 295.777 539.314V530.387C295.777 530.133 295.714 529.88 295.587 529.627C295.587 529.247 295.587 528.867 295.587 528.487V526.588Z" fill="#F4EDE8"/>
<path d="M372.312 508.163C374.469 508.163 376.244 508.606 377.64 509.493C376.244 510.379 375.04 511.582 374.025 513.102C373.137 514.621 372.566 516.267 372.312 518.04V546.722C372.186 550.774 371.298 554.573 369.649 558.119C368.127 561.538 366.034 564.577 363.371 567.236C360.707 569.769 357.599 571.795 354.048 573.314C350.497 574.834 346.692 575.594 342.633 575.594C338.574 575.594 334.769 574.834 331.218 573.314C327.666 571.795 324.559 569.769 321.895 567.236C319.232 564.577 317.076 561.538 315.427 558.119C313.905 554.573 313.08 550.774 312.954 546.722V518.04C312.573 514.115 310.797 511.265 307.627 509.493C309.021 508.606 310.797 508.163 312.954 508.163V471.503C313.08 467.578 313.905 463.842 315.427 460.296C317.076 456.751 319.232 453.712 321.895 451.179C324.559 448.52 327.666 446.431 331.218 444.911C334.769 443.391 338.574 442.632 342.633 442.632C346.692 442.632 350.497 443.391 354.048 444.911C357.599 446.431 360.707 448.52 363.371 451.179C366.034 453.712 368.127 456.751 369.649 460.296C371.298 463.842 372.186 467.578 372.312 471.503V508.163ZM323.227 501.325C323.227 500.692 323.164 500.122 323.037 499.615C323.037 498.982 323.037 498.349 323.037 497.716V494.107C322.91 491.701 322.846 489.422 322.846 487.269C322.846 485.116 322.783 483.09 322.657 481.191C322.529 480.304 322.466 479.418 322.466 478.531C322.466 477.645 322.403 476.822 322.276 476.062C322.276 475.303 322.212 474.606 322.086 473.973C322.086 473.34 322.086 472.77 322.086 472.263C322.086 471.63 322.022 471.123 321.895 470.744C321.895 470.237 321.895 469.857 321.895 469.604V468.654C321.769 468.654 321.705 468.718 321.705 468.844V469.604C321.705 469.857 321.642 470.237 321.515 470.744C321.515 471.123 321.515 471.63 321.515 472.263C321.515 472.77 321.452 473.34 321.325 473.973C321.325 474.606 321.325 475.303 321.325 476.062C321.198 476.822 321.134 477.645 321.134 478.531C321.134 479.418 321.071 480.304 320.944 481.191C320.817 483.09 320.754 485.116 320.754 487.269C320.754 489.422 320.69 491.701 320.564 494.107V497.716C320.564 498.349 320.5 498.982 320.373 499.615C320.373 500.122 320.373 500.692 320.373 501.325V516.331C320.373 517.217 320.437 517.85 320.564 518.23V523.738C320.564 524.878 320.564 526.018 320.564 527.157C320.69 528.297 320.754 529.374 320.754 530.387C320.754 531.526 320.754 532.603 320.754 533.616C320.881 534.502 320.944 535.452 320.944 536.465C321.071 537.478 321.134 538.428 321.134 539.314C321.134 540.074 321.198 540.834 321.325 541.593C321.325 542.353 321.325 543.05 321.325 543.683C321.452 544.316 321.515 544.949 321.515 545.582C321.515 546.215 321.515 546.785 321.515 547.292C321.642 547.672 321.705 547.988 321.705 548.241V548.811C321.705 548.938 321.769 549.001 321.895 549.001V548.241C321.895 547.988 321.895 547.672 321.895 547.292C322.022 546.785 322.086 546.215 322.086 545.582C322.086 544.949 322.086 544.316 322.086 543.683C322.212 543.05 322.276 542.353 322.276 541.593C322.403 540.834 322.466 540.074 322.466 539.314C322.466 538.428 322.529 537.478 322.657 536.465C322.657 535.452 322.657 534.502 322.657 533.616C322.783 532.603 322.846 531.526 322.846 530.387C322.846 529.374 322.846 528.297 322.846 527.157C322.974 526.018 323.037 524.878 323.037 523.738V518.23C323.164 517.85 323.227 517.217 323.227 516.331V501.325ZM354.619 472.263C354.619 470.617 354.555 468.591 354.429 466.185C354.302 463.779 353.858 461.5 353.097 459.347C352.336 457.194 351.131 455.358 349.482 453.838C347.96 452.192 345.677 451.369 342.633 451.369C339.589 451.369 337.242 452.192 335.594 453.838C334.072 455.358 332.93 457.194 332.169 459.347C331.408 461.5 330.964 463.779 330.837 466.185C330.71 468.591 330.647 470.617 330.647 472.263V508.163C332.803 508.163 334.579 508.606 335.974 509.493C332.803 511.265 331.027 514.115 330.647 518.04V545.962C330.647 547.608 330.71 549.635 330.837 552.04C330.964 554.32 331.408 556.599 332.169 558.878C332.93 561.031 334.072 562.867 335.594 564.387C337.242 565.907 339.589 566.666 342.633 566.666C345.677 566.666 347.96 565.907 349.482 564.387C351.131 562.867 352.336 561.031 353.097 558.878C353.858 556.599 354.302 554.32 354.429 552.04C354.555 549.635 354.619 547.608 354.619 545.962V518.04C354.365 514.241 352.589 511.392 349.292 509.493C350.687 508.606 352.463 508.163 354.619 508.163V472.263ZM364.892 501.325C364.892 500.692 364.892 500.122 364.892 499.615C364.892 498.982 364.829 498.349 364.702 497.716V494.107C364.702 491.701 364.639 489.422 364.512 487.269C364.512 485.116 364.449 483.09 364.322 481.191C364.195 480.304 364.132 479.418 364.132 478.531C364.132 477.645 364.068 476.822 363.941 476.062C363.941 475.303 363.878 474.606 363.751 473.973C363.751 473.34 363.751 472.77 363.751 472.263C363.751 471.63 363.688 471.123 363.561 470.744C363.561 470.237 363.561 469.857 363.561 469.604V468.654C363.434 468.654 363.371 468.718 363.371 468.844V469.604C363.371 469.857 363.371 470.237 363.371 470.744C363.371 471.123 363.307 471.63 363.18 472.263C363.18 472.77 363.117 473.34 362.99 473.973C362.99 474.606 362.99 475.303 362.99 476.062C362.863 476.822 362.8 477.645 362.8 478.531C362.8 479.418 362.736 480.304 362.61 481.191C362.483 483.09 362.419 485.116 362.419 487.269C362.419 489.422 362.356 491.701 362.229 494.107V501.325C362.102 502.591 362.039 503.857 362.039 505.124C362.039 506.39 362.039 507.656 362.039 508.923C362.039 510.189 362.039 511.456 362.039 512.722C362.039 513.861 362.102 515.064 362.229 516.331V523.738C362.229 524.878 362.229 526.018 362.229 527.157C362.356 528.297 362.419 529.374 362.419 530.387C362.419 531.526 362.419 532.603 362.419 533.616C362.546 534.502 362.61 535.452 362.61 536.465C362.736 537.478 362.8 538.428 362.8 539.314C362.8 540.074 362.863 540.834 362.99 541.593C362.99 542.353 362.99 543.05 362.99 543.683C363.117 544.316 363.18 544.949 363.18 545.582C363.307 546.215 363.371 546.785 363.371 547.292C363.371 547.672 363.371 547.988 363.371 548.241V548.811C363.371 548.938 363.434 549.001 363.561 549.001V548.241C363.561 547.988 363.561 547.672 363.561 547.292C363.688 546.785 363.751 546.215 363.751 545.582C363.751 544.949 363.751 544.316 363.751 543.683C363.878 543.05 363.941 542.353 363.941 541.593C364.068 540.834 364.132 540.074 364.132 539.314C364.132 538.428 364.195 537.478 364.322 536.465C364.322 535.452 364.322 534.502 364.322 533.616C364.449 532.603 364.512 531.526 364.512 530.387C364.512 529.374 364.512 528.297 364.512 527.157C364.639 526.018 364.702 524.878 364.702 523.738V520.129C364.702 519.876 364.702 519.56 364.702 519.18C364.829 518.8 364.892 518.483 364.892 518.23V501.325Z" fill="#F4EDE8"/>
<path d="M442.914 483.66C442.914 489.358 441.519 494.487 438.729 499.046C435.939 503.604 432.197 507.15 427.504 509.683C429.787 511.456 431.88 513.545 433.782 515.951C435.685 518.23 437.27 520.763 438.538 523.549C439.934 526.334 441.012 529.184 441.773 532.096C442.534 535.009 442.914 537.858 442.914 540.644V552.8C442.788 556.853 441.963 560.651 440.441 564.197C438.919 567.616 436.826 570.655 434.163 573.314C431.499 575.847 428.392 577.873 424.84 579.393C421.289 581.039 417.484 581.862 413.425 581.862H395.541C394.653 581.862 393.892 581.545 393.258 580.912C392.751 580.279 392.497 579.519 392.497 578.633C392.497 579.519 392.18 580.279 391.546 580.912C390.912 581.545 390.214 581.862 389.453 581.862H379.37C379.37 580.722 379.56 579.899 379.94 579.393C380.448 578.886 380.955 578.316 381.463 577.683C381.97 577.177 382.414 576.417 382.794 575.404C383.302 574.391 383.555 572.808 383.555 570.655V517.66C383.175 513.861 381.399 511.075 378.228 509.303C379.877 508.289 381.653 507.783 383.555 507.783V445.291C383.555 443.138 383.302 441.555 382.794 440.542C382.414 439.529 381.97 438.769 381.463 438.263C380.955 437.63 380.448 437.06 379.94 436.553C379.56 436.047 379.37 435.224 379.37 434.084H389.453C390.214 434.084 390.912 434.401 391.546 435.034C392.18 435.54 392.497 436.237 392.497 437.123C392.497 435.097 393.512 434.084 395.541 434.084H413.425C417.484 434.084 421.289 434.844 424.84 436.364C428.392 437.883 431.499 439.973 434.163 442.632C436.826 445.164 438.919 448.204 440.441 451.749C441.963 455.295 442.788 459.031 442.914 462.956V483.66ZM393.829 497.716C393.829 496.83 393.765 496.007 393.639 495.247C393.639 494.36 393.639 493.537 393.639 492.777V487.839C393.512 484.546 393.448 481.444 393.448 478.531C393.448 475.619 393.385 472.896 393.258 470.364C393.131 468.971 393.068 467.704 393.068 466.565C393.068 465.425 393.005 464.349 392.878 463.336C392.878 462.323 392.814 461.373 392.688 460.487C392.688 459.473 392.688 458.65 392.688 458.017C392.688 457.258 392.624 456.561 392.497 455.928C392.497 455.295 392.497 454.788 392.497 454.408V453.269C392.37 453.395 392.307 453.522 392.307 453.649V454.408C392.307 454.788 392.243 455.295 392.117 455.928C392.117 456.561 392.117 457.258 392.117 458.017C392.117 458.65 392.053 459.473 391.926 460.487C391.926 461.373 391.926 462.323 391.926 463.336C391.8 464.349 391.736 465.425 391.736 466.565C391.736 467.704 391.673 468.971 391.546 470.364C391.419 472.896 391.356 475.619 391.356 478.531C391.356 481.444 391.292 484.546 391.165 487.839V492.777C391.165 493.537 391.165 494.36 391.165 495.247C391.165 496.007 391.102 496.83 390.975 497.716V518.04C390.975 518.547 390.975 518.99 390.975 519.37C391.102 519.75 391.165 520.193 391.165 520.699V527.917C391.165 529.564 391.165 531.21 391.165 532.856C391.292 534.375 391.356 535.832 391.356 537.225C391.356 538.618 391.356 540.01 391.356 541.404C391.483 542.796 391.546 544.189 391.546 545.582C391.673 546.215 391.736 546.849 391.736 547.482C391.736 547.988 391.736 548.558 391.736 549.191C391.736 549.824 391.736 550.394 391.736 550.901C391.863 551.407 391.926 551.914 391.926 552.42C391.926 553.433 391.926 554.446 391.926 555.459C392.053 556.346 392.117 557.169 392.117 557.929C392.117 558.689 392.117 559.385 392.117 560.018C392.243 560.525 392.307 560.968 392.307 561.348V562.298C392.307 562.424 392.37 562.551 392.497 562.677V561.348C392.497 560.968 392.497 560.525 392.497 560.018C392.624 559.385 392.688 558.689 392.688 557.929C392.688 557.169 392.688 556.346 392.688 555.459C392.814 554.446 392.878 553.433 392.878 552.42C393.005 551.914 393.068 551.407 393.068 550.901C393.068 550.394 393.068 549.824 393.068 549.191C393.068 548.558 393.068 547.988 393.068 547.482C393.195 546.849 393.258 546.215 393.258 545.582C393.258 544.189 393.258 542.796 393.258 541.404C393.385 540.01 393.448 538.618 393.448 537.225C393.448 535.832 393.448 534.375 393.448 532.856C393.575 531.21 393.639 529.564 393.639 527.917V523.169C393.639 522.029 393.702 521.206 393.829 520.699V497.716ZM433.021 549.001C432.894 549.381 432.831 550.014 432.831 550.901V554.32C432.831 554.953 432.768 555.523 432.641 556.029C432.641 556.536 432.641 557.042 432.641 557.549C432.641 558.055 432.577 558.499 432.45 558.878C432.45 559.258 432.45 559.638 432.45 560.018V560.588C432.323 560.715 432.26 560.905 432.26 561.158V562.108C432.133 562.234 432.07 562.361 432.07 562.487V562.867C432.07 562.994 432.006 563.121 431.88 563.247C431.88 563.247 431.88 563.311 431.88 563.437C431.88 563.564 431.816 563.69 431.689 563.817H431.88C431.88 563.817 431.943 563.69 432.07 563.437C432.07 563.437 432.133 563.311 432.26 563.057C432.387 562.931 432.45 562.804 432.45 562.677C432.577 562.551 432.641 562.424 432.641 562.298C432.768 562.171 432.831 562.044 432.831 561.918C432.958 561.791 433.021 561.601 433.021 561.348C433.275 561.095 433.402 560.778 433.402 560.398C433.655 559.891 433.909 559.005 434.163 557.739C434.416 556.979 434.543 556.473 434.543 556.219C434.67 555.966 434.733 555.713 434.733 555.459C434.733 555.08 434.797 554.763 434.924 554.51C434.924 554.256 434.924 554.003 434.924 553.75C435.051 553.37 435.114 553.054 435.114 552.8C435.241 552.42 435.304 551.85 435.304 551.091C435.431 550.458 435.494 549.824 435.494 549.191C435.494 548.558 435.558 547.925 435.685 547.292V539.314C435.685 538.681 435.621 538.048 435.494 537.415C435.494 536.782 435.431 536.148 435.304 535.515C435.304 534.755 435.241 534.186 435.114 533.806C435.114 533.552 435.051 533.299 434.924 533.046C434.924 532.666 434.924 532.35 434.924 532.096C434.797 531.843 434.733 531.59 434.733 531.336C434.733 530.956 434.67 530.64 434.543 530.387C434.543 530.133 434.48 529.88 434.353 529.627C434.353 529.374 434.353 529.12 434.353 528.867C434.099 528.107 433.972 527.664 433.972 527.537C433.846 527.157 433.655 526.714 433.402 526.208C433.402 525.828 433.275 525.511 433.021 525.258C433.021 524.878 432.894 524.562 432.641 524.308C432.387 523.802 432.197 523.422 432.07 523.169C431.943 523.042 431.88 522.915 431.88 522.789H431.689C431.689 522.789 431.753 522.915 431.88 523.169C431.88 523.295 431.88 523.422 431.88 523.549C432.006 523.549 432.07 523.612 432.07 523.738C432.07 523.992 432.133 524.245 432.26 524.498V525.448C432.387 525.701 432.45 526.018 432.45 526.398C432.45 527.031 432.514 527.474 432.641 527.728V529.057C432.768 529.564 432.831 530.07 432.831 530.577C432.831 531.083 432.831 531.653 432.831 532.286V533.996C432.831 534.249 432.831 534.565 432.831 534.945C432.958 535.199 433.021 535.452 433.021 535.705V549.001ZM425.221 540.644C425.221 538.997 425.157 536.655 425.031 533.616C424.904 530.577 424.46 527.537 423.699 524.498C422.938 521.459 421.733 518.863 420.084 516.711C418.562 514.431 416.279 513.292 413.235 513.292H406.386C404.991 513.292 403.785 513.798 402.771 514.811C401.756 515.824 401.249 517.027 401.249 518.42V567.806C401.249 569.199 401.756 570.402 402.771 571.415C403.785 572.301 404.991 572.808 406.386 572.935H413.235C416.279 572.935 418.562 572.175 420.084 570.655C421.733 569.009 422.938 567.109 423.699 564.957C424.46 562.804 424.904 560.525 425.031 558.119C425.157 555.713 425.221 553.687 425.221 552.041V540.644ZM425.221 463.716C425.221 462.069 425.157 460.107 425.031 457.827C424.904 455.422 424.46 453.142 423.699 450.989C422.938 448.837 421.733 447 420.084 445.481C418.562 443.835 416.279 443.011 413.235 443.011H406.386C404.991 443.011 403.785 443.518 402.771 444.531C401.756 445.544 401.249 446.747 401.249 448.14V499.235C401.249 500.629 401.756 501.831 402.771 502.844C403.785 503.857 404.991 504.364 406.386 504.364H413.235C416.279 504.364 418.562 503.604 420.084 502.085C421.733 500.565 422.938 498.729 423.699 496.576C424.46 494.297 424.904 492.017 425.031 489.738C425.157 487.332 425.221 485.306 425.221 483.66V463.716ZM433.782 488.789C434.036 488.029 434.163 487.522 434.163 487.269C434.416 486.762 434.543 486.256 434.543 485.749C434.67 485.496 434.733 485.243 434.733 484.99C434.733 484.61 434.797 484.293 434.924 484.04C434.924 483.786 434.924 483.533 434.924 483.28C435.051 482.9 435.114 482.52 435.114 482.14C435.241 481.761 435.304 481.127 435.304 480.241C435.431 479.608 435.494 478.975 435.494 478.341C435.494 477.708 435.558 477.075 435.685 476.442V472.263C435.685 470.87 435.685 469.541 435.685 468.274C435.685 466.881 435.621 465.552 435.494 464.286C435.368 463.905 435.304 463.589 435.304 463.336C435.304 462.956 435.241 462.639 435.114 462.386C435.114 461.5 435.051 460.867 434.924 460.487C434.797 459.854 434.67 459.283 434.543 458.777C434.543 458.271 434.48 457.764 434.353 457.258C434.099 456.498 433.972 455.991 433.972 455.738C433.719 455.231 433.592 454.851 433.592 454.598C433.338 454.092 433.148 453.712 433.021 453.459C433.021 453.079 432.894 452.762 432.641 452.509C432.514 452.129 432.323 451.686 432.07 451.179L431.689 450.799V450.989C431.689 451.116 431.689 451.179 431.689 451.179C431.816 451.179 431.88 451.242 431.88 451.369C432.006 451.496 432.07 451.686 432.07 451.939C432.07 452.192 432.133 452.446 432.26 452.699V453.649C432.387 453.902 432.45 454.282 432.45 454.788C432.45 455.041 432.45 455.295 432.45 455.548C432.577 455.675 432.641 455.865 432.641 456.118V457.447C432.768 457.954 432.831 458.46 432.831 458.967C432.831 459.473 432.831 460.043 432.831 460.677V462.576C432.831 462.829 432.831 463.146 432.831 463.526C432.958 463.779 433.021 464.032 433.021 464.286V478.341C432.894 478.721 432.831 479.354 432.831 480.241V483.85C432.831 484.483 432.768 485.053 432.641 485.559C432.641 486.066 432.641 486.572 432.641 487.079C432.641 487.585 432.577 488.092 432.45 488.599C432.45 488.979 432.45 489.358 432.45 489.738C432.45 490.371 432.387 490.751 432.26 490.878V492.017C432.133 492.017 432.07 492.144 432.07 492.398V492.777C432.07 492.904 432.006 493.031 431.88 493.157C431.88 493.157 431.88 493.221 431.88 493.347C431.88 493.474 431.816 493.6 431.689 493.727L432.07 493.347C432.07 493.221 432.07 493.157 432.07 493.157C432.197 493.031 432.26 492.904 432.26 492.777C432.387 492.777 432.45 492.651 432.45 492.398C432.577 492.398 432.641 492.271 432.641 492.017C432.768 492.017 432.831 491.891 432.831 491.638C432.958 491.511 433.021 491.321 433.021 491.068C433.275 490.815 433.402 490.498 433.402 490.118C433.655 489.358 433.782 488.915 433.782 488.789Z" fill="#F4EDE8"/>
<path d="M514.875 564.197C515.384 566.35 515.955 567.932 516.587 568.946C517.222 569.959 517.858 570.782 518.49 571.415C519.125 572.048 519.696 572.618 520.205 573.125C520.71 573.631 521.09 574.454 521.346 575.594H511.261C510.373 575.594 509.549 575.277 508.788 574.644C508.155 574.011 507.773 573.251 507.646 572.365C507.773 573.251 507.582 574.011 507.076 574.644C506.567 575.277 505.935 575.594 505.173 575.594H495.088C494.835 574.454 494.9 573.631 495.28 573.125C495.662 572.618 496.041 572.112 496.421 571.605C496.803 570.972 497.121 570.149 497.374 569.136C497.626 567.996 497.562 566.286 497.182 564.007V563.817L492.997 542.353C492.745 541.087 492.044 540.01 490.903 539.124C489.762 538.111 488.495 537.605 487.098 537.605H473.972C472.578 537.605 471.307 538.111 470.166 539.124C469.025 540.01 468.328 541.087 468.075 542.353L464.078 563.817V564.007C463.699 566.286 463.573 567.996 463.699 569.136C463.952 570.149 464.27 570.972 464.649 571.605C465.158 572.112 465.537 572.618 465.79 573.125C466.173 573.631 466.299 574.454 466.173 575.594H456.088C455.2 575.594 454.503 575.277 453.994 574.644C453.488 574.011 453.297 573.251 453.423 572.365C453.297 573.251 452.917 574.011 452.282 574.644C451.65 575.277 450.888 575.594 450 575.594H439.916C440.043 574.454 440.36 573.631 440.867 573.125C441.375 572.618 441.946 572.048 442.58 571.415C443.214 570.782 443.848 569.959 444.482 568.946C445.117 567.932 445.688 566.35 446.195 564.197L454.755 518.04C455.008 516.267 454.82 514.621 454.185 513.102C453.553 511.582 452.535 510.379 451.141 509.493C453.17 508.606 455.008 508.163 456.658 508.163L466.931 454.028C467.314 451.876 467.375 450.293 467.122 449.28C466.87 448.14 466.552 447.317 466.173 446.81C465.79 446.177 465.411 445.608 465.028 445.101C464.649 444.595 464.587 443.771 464.84 442.632H477.586C479.489 442.885 480.439 443.961 480.439 445.861C480.439 444.974 480.695 444.278 481.201 443.771C481.836 443.138 482.533 442.758 483.295 442.632H496.233C496.485 443.771 496.421 444.595 496.041 445.101C495.788 445.608 495.471 446.177 495.088 446.81C494.709 447.317 494.391 448.14 494.138 449.28C493.886 450.293 493.947 451.876 494.33 454.028L504.411 508.163C505.426 508.163 506.379 508.289 507.267 508.543C508.155 508.796 509.04 509.113 509.929 509.493C507.141 511.265 505.935 514.115 506.314 518.04L514.875 564.197ZM469.217 496.197C469.469 495.437 469.596 494.74 469.596 494.107C469.722 493.347 469.849 492.651 469.975 492.017C470.61 489.105 471.119 486.382 471.499 483.85C471.878 481.191 472.26 478.785 472.64 476.632C472.893 475.619 473.019 474.606 473.019 473.593C473.149 472.58 473.275 471.567 473.401 470.554C473.528 469.667 473.654 468.844 473.781 468.085C473.907 467.325 474.034 466.628 474.163 465.995C474.29 465.362 474.351 464.792 474.351 464.286C474.351 463.652 474.416 463.146 474.543 462.766V462.006L474.351 462.766C474.225 463.146 474.098 463.589 473.972 464.096C473.846 464.602 473.719 465.172 473.593 465.805C473.337 466.438 473.149 467.198 473.019 468.085C472.893 468.844 472.705 469.604 472.448 470.364C472.196 471.377 471.943 472.39 471.69 473.403C471.56 474.416 471.372 475.429 471.119 476.442C470.484 478.595 469.849 480.937 469.217 483.47C468.708 485.876 468.137 488.535 467.502 491.448C467.502 492.208 467.44 492.904 467.314 493.537C467.187 494.17 466.996 494.867 466.743 495.626C466.617 496.386 466.487 497.146 466.361 497.906C466.234 498.539 466.108 499.235 465.981 499.995C465.602 501.388 465.22 502.844 464.84 504.364C464.587 505.884 464.331 507.403 464.078 508.923C463.826 510.316 463.508 511.772 463.129 513.292C462.873 514.811 462.62 516.267 462.367 517.66C462.24 518.04 462.176 518.42 462.176 518.8C462.176 519.053 462.114 519.37 461.984 519.75C461.731 520.763 461.605 521.523 461.605 522.029C461.226 523.295 460.97 524.688 460.843 526.208C460.59 527.601 460.338 528.994 460.085 530.387C459.829 531.779 459.641 533.046 459.511 534.186C459.132 537.098 458.752 539.504 458.37 541.404C458.117 542.417 457.926 543.43 457.799 544.442C457.673 545.456 457.546 546.469 457.42 547.482C457.167 548.368 456.976 549.255 456.85 550.141C456.85 550.901 456.785 551.597 456.658 552.231C456.532 552.864 456.467 553.433 456.467 553.94C456.467 554.446 456.405 554.89 456.279 555.269C456.279 555.523 456.214 555.713 456.088 555.84C456.088 555.84 456.088 555.903 456.088 556.029V556.219C456.214 556.219 456.279 556.156 456.279 556.029C456.279 555.776 456.341 555.523 456.467 555.269C456.597 555.016 456.658 554.636 456.658 554.13C456.785 553.497 456.976 552.864 457.229 552.231C457.482 551.597 457.673 550.901 457.799 550.141C458.052 549.381 458.308 548.558 458.561 547.672C458.814 546.785 459.005 545.836 459.132 544.823C459.385 543.809 459.576 542.796 459.702 541.783C459.955 540.77 460.211 539.694 460.464 538.554C460.843 537.288 461.161 536.022 461.414 534.755C461.67 533.489 461.923 532.16 462.176 530.766C462.555 529.374 462.937 527.981 463.317 526.588C463.443 525.955 463.573 525.321 463.699 524.688C463.826 523.928 463.952 523.232 464.078 522.599L464.649 520.32C464.775 519.94 464.84 519.56 464.84 519.18C464.84 518.8 464.902 518.42 465.028 518.04C465.284 516.647 465.602 515.254 465.981 513.861C466.361 512.342 466.678 510.822 466.931 509.303C467.187 507.91 467.44 506.453 467.693 504.934C467.946 503.414 468.202 501.958 468.455 500.565C468.581 499.805 468.708 499.046 468.834 498.286C468.96 497.526 469.09 496.83 469.217 496.197ZM485.386 528.677C486.783 528.551 487.859 528.044 488.621 527.157C489.509 526.145 489.827 524.942 489.571 523.549L488.43 518.04C487.924 516.267 487.036 514.621 485.768 513.102C484.627 511.582 483.23 510.379 481.58 509.493C483.104 508.606 484.754 508.163 486.527 508.163L480.439 475.682L474.351 508.163C476.001 508.163 477.713 508.606 479.489 509.493C477.713 510.379 476.193 511.582 474.922 513.102C473.781 514.621 473.019 516.267 472.64 518.04L471.69 523.549C471.434 524.942 471.69 526.145 472.448 527.157C473.21 528.044 474.225 528.551 475.492 528.677H485.386ZM504.603 555.269C504.603 555.523 504.603 555.713 504.603 555.84C504.729 555.84 504.794 555.903 504.794 556.029V555.269C504.667 554.89 504.603 554.446 504.603 553.94C504.603 553.433 504.538 552.864 504.411 552.231C504.285 551.597 504.158 550.901 504.032 550.141C504.032 549.255 503.906 548.368 503.653 547.482C503.523 546.469 503.397 545.456 503.27 544.442C503.144 543.43 502.953 542.417 502.7 541.404C502.32 539.504 501.938 537.098 501.559 534.186C501.306 533.046 501.05 531.779 500.797 530.387C500.67 528.994 500.479 527.601 500.226 526.208C499.973 525.448 499.782 524.752 499.656 524.119C499.656 523.485 499.529 522.789 499.276 522.029C499.276 521.523 499.15 520.763 498.894 519.75C498.894 519.37 498.832 519.053 498.706 518.8C498.706 518.42 498.706 518.04 498.706 517.66C498.45 516.267 498.135 514.811 497.753 513.292C497.5 511.772 497.247 510.316 496.991 508.923C496.738 507.403 496.421 505.884 496.041 504.364C495.788 502.844 495.471 501.388 495.088 499.995C494.962 499.235 494.835 498.539 494.709 497.906C494.583 497.146 494.456 496.386 494.33 495.626C494.074 494.867 493.886 494.17 493.759 493.537C493.633 492.904 493.503 492.208 493.377 491.448C492.745 488.535 492.109 485.876 491.474 483.47C490.968 480.937 490.524 478.595 490.145 476.442C489.889 475.429 489.636 474.416 489.383 473.403C489.13 472.39 488.874 471.377 488.621 470.364C488.368 469.604 488.115 468.844 487.859 468.085C487.733 467.198 487.542 466.438 487.289 465.805C487.162 465.172 487.036 464.602 486.91 464.096C486.783 463.589 486.657 463.146 486.527 462.766L486.339 462.006V462.766C486.465 463.399 486.657 464.476 486.91 465.995C486.91 466.628 486.971 467.325 487.098 468.085C487.227 468.844 487.354 469.667 487.48 470.554C487.606 471.567 487.733 472.58 487.859 473.593C487.986 474.606 488.177 475.619 488.43 476.632C488.812 478.785 489.192 481.191 489.571 483.85C489.953 486.382 490.398 489.105 490.903 492.017C491.03 492.651 491.095 493.347 491.095 494.107C491.221 494.74 491.412 495.437 491.665 496.197C491.791 496.83 491.918 497.526 492.044 498.286C492.174 499.046 492.3 499.805 492.427 500.565C492.68 501.958 492.933 503.414 493.189 504.934C493.568 506.453 493.886 507.91 494.138 509.303C494.391 510.822 494.709 512.342 495.088 513.861C495.471 515.254 495.788 516.647 496.041 518.04C496.168 518.42 496.233 518.8 496.233 519.18C496.233 519.56 496.294 519.94 496.421 520.32L496.991 522.599C497.121 523.232 497.247 523.928 497.374 524.688C497.5 525.321 497.626 525.955 497.753 526.588C498.135 527.981 498.45 529.374 498.706 530.766C498.959 532.16 499.212 533.489 499.465 534.755C499.721 536.022 499.973 537.288 500.226 538.554C500.606 539.694 500.923 540.77 501.179 541.783C501.432 542.796 501.685 543.809 501.938 544.823C502.194 545.836 502.447 546.785 502.7 547.672C503.079 549.445 503.461 550.964 503.841 552.231C504.094 552.864 504.223 553.497 504.223 554.13C504.35 554.636 504.476 555.016 504.603 555.269Z" fill="#F4EDE8"/>
<path d="M594.701 583.571C596.095 583.825 597.048 584.268 597.554 584.901C598.189 585.534 598.633 586.167 598.886 586.801C599.139 587.561 599.266 588.384 599.266 589.27C595.207 589.27 591.401 588.763 587.852 587.75C584.299 586.737 581.129 585.091 578.337 582.812C575.676 580.532 573.52 577.557 571.87 573.884C570.347 570.212 569.588 565.717 569.588 560.398V534.375C569.588 532.729 569.523 530.703 569.397 528.297C569.27 525.891 568.826 523.612 568.065 521.459C567.303 519.306 566.1 517.47 564.45 515.951C562.93 514.305 560.644 513.482 557.601 513.482H549.801C548.66 513.735 547.645 514.368 546.757 515.381C545.995 516.267 545.616 517.344 545.616 518.61V564.007C545.616 566.286 545.804 567.996 546.187 569.136C546.692 570.149 547.201 570.972 547.707 571.605C548.216 572.112 548.66 572.618 549.039 573.125C549.548 573.631 549.801 574.454 549.801 575.594H539.716C538.958 575.594 538.257 575.277 537.625 574.644C536.99 574.011 536.672 573.314 536.672 572.555C536.672 573.314 536.358 574.011 535.723 574.644C535.214 575.277 534.517 575.594 533.628 575.594H523.735C523.735 574.454 523.926 573.631 524.309 573.125C524.814 572.618 525.323 572.112 525.829 571.605C526.338 570.972 526.779 570.149 527.161 569.136C527.667 568.122 527.923 566.54 527.923 564.387V518.04C527.541 514.115 525.764 511.265 522.594 509.493C523.991 508.606 525.764 508.163 527.923 508.163V453.838C527.923 451.686 527.667 450.103 527.161 449.09C526.779 448.077 526.338 447.317 525.829 446.81C525.323 446.177 524.814 445.608 524.309 445.101C523.926 444.595 523.735 443.771 523.735 442.632H533.82C534.581 442.632 535.278 442.948 535.914 443.582C536.546 444.088 536.864 444.784 536.864 445.671C536.864 443.645 537.878 442.632 539.907 442.632H557.792C561.85 442.632 565.656 443.391 569.206 444.911C572.759 446.431 575.864 448.52 578.529 451.179C581.193 453.712 583.284 456.751 584.808 460.297C586.328 463.842 587.155 467.578 587.281 471.503V483.85C587.281 489.168 586.014 494.044 583.475 498.476C580.94 502.908 577.514 506.453 573.203 509.113C577.514 511.645 580.94 515.191 583.475 519.75C586.014 524.182 587.281 529.057 587.281 534.375V559.638C587.281 562.298 587.281 565.02 587.281 567.806C587.408 570.465 587.725 572.935 588.231 575.214C588.74 577.367 589.502 579.203 590.516 580.722C591.531 582.242 592.925 583.192 594.701 583.571ZM577.388 480.621C577.261 480.874 577.196 481.191 577.196 481.571V485.939C577.07 486.446 577.008 486.952 577.008 487.459C577.008 487.839 577.008 488.219 577.008 488.599C577.008 488.852 576.944 489.042 576.817 489.168C576.817 489.295 576.817 489.485 576.817 489.738V490.878C576.691 491.131 576.626 491.448 576.626 491.828C576.626 492.081 576.564 492.334 576.438 492.588C576.438 492.841 576.373 493.031 576.247 493.157V493.537L576.055 493.917C576.055 493.917 576.182 493.854 576.438 493.727V493.537L576.626 493.347C576.752 493.221 576.817 493.157 576.817 493.157C576.817 493.031 576.882 492.904 577.008 492.777C577.135 492.524 577.261 492.271 577.388 492.017C577.514 491.638 577.64 491.321 577.767 491.068C577.897 490.815 577.958 490.688 577.958 490.688C577.958 490.561 578.023 490.371 578.149 490.118C578.276 489.865 578.337 489.675 578.337 489.548C578.337 489.295 578.402 489.042 578.529 488.789C578.655 488.535 578.72 488.345 578.72 488.219C578.72 488.092 578.782 487.902 578.911 487.649C578.911 487.395 578.911 487.206 578.911 487.079C579.038 486.826 579.099 486.572 579.099 486.319C579.226 485.813 579.29 485.306 579.29 484.8C579.417 484.293 579.543 483.786 579.67 483.28C579.796 482.9 579.861 482.33 579.861 481.571C579.861 481.317 579.861 481.064 579.861 480.811C579.987 480.558 580.052 480.304 580.052 480.051V473.403C580.052 472.643 579.987 472.073 579.861 471.694V470.934C579.861 470.68 579.796 470.554 579.67 470.554C579.67 470.427 579.67 470.237 579.67 469.984C579.67 469.351 579.543 468.401 579.29 467.135C579.164 466.881 579.099 466.628 579.099 466.375C579.099 466.122 579.038 465.868 578.911 465.615C578.911 465.489 578.846 465.425 578.72 465.425C578.72 465.299 578.72 465.172 578.72 465.045C578.72 464.919 578.655 464.855 578.529 464.855C578.529 464.729 578.529 464.602 578.529 464.476C578.402 464.222 578.337 464.032 578.337 463.905C578.337 463.779 578.276 463.589 578.149 463.336C578.023 463.082 577.958 462.892 577.958 462.766C577.958 462.639 577.897 462.449 577.767 462.196C577.64 462.069 577.579 461.943 577.579 461.816C577.579 461.69 577.514 461.563 577.388 461.436C577.135 460.93 577.008 460.677 577.008 460.677C576.882 460.55 576.817 460.487 576.817 460.487C576.817 460.36 576.752 460.233 576.626 460.107C576.499 459.98 576.438 459.854 576.438 459.727C576.308 459.6 576.247 459.473 576.247 459.347H576.055C576.055 459.347 576.12 459.473 576.247 459.727V460.107C576.373 460.233 576.438 460.487 576.438 460.867C576.438 460.993 576.438 461.12 576.438 461.246C576.564 461.246 576.626 461.373 576.626 461.626C576.626 462.006 576.691 462.323 576.817 462.576V463.526C576.817 463.779 576.817 463.969 576.817 464.096C576.944 464.222 577.008 464.412 577.008 464.665C577.008 465.805 577.07 466.691 577.196 467.325V470.364C577.323 470.997 577.388 472.01 577.388 473.403V480.621ZM538.196 500.185C538.196 499.552 538.131 498.856 538.005 498.096C538.005 497.336 538.005 496.576 538.005 495.816V491.638C537.878 488.852 537.817 486.193 537.817 483.66C537.817 481.127 537.752 478.721 537.625 476.442C537.499 475.429 537.434 474.416 537.434 473.403C537.434 472.39 537.373 471.44 537.243 470.554C537.243 469.541 537.181 468.654 537.055 467.895C537.055 467.135 537.055 466.438 537.055 465.805C537.055 465.172 536.99 464.602 536.864 464.096C536.864 463.589 536.864 463.146 536.864 462.766V461.816C536.737 461.816 536.672 461.88 536.672 462.006V462.766C536.672 463.146 536.611 463.589 536.484 464.096C536.484 464.602 536.484 465.172 536.484 465.805C536.484 466.438 536.419 467.135 536.293 467.895C536.293 468.654 536.293 469.541 536.293 470.554C536.167 471.44 536.102 472.39 536.102 473.403C536.102 474.416 536.04 475.429 535.914 476.442C535.784 478.721 535.723 481.127 535.723 483.66C535.723 486.193 535.658 488.852 535.531 491.638V495.816C535.531 496.576 535.47 497.336 535.343 498.096C535.343 498.856 535.343 499.552 535.343 500.185V517.85C535.343 518.863 535.405 519.623 535.531 520.129V526.398C535.531 527.791 535.531 529.184 535.531 530.577C535.658 531.843 535.723 533.109 535.723 534.375C535.723 535.769 535.723 537.035 535.723 538.174C535.849 539.314 535.914 540.454 535.914 541.593C536.04 542.733 536.102 543.809 536.102 544.823C536.102 545.709 536.167 546.659 536.293 547.672C536.293 548.558 536.293 549.381 536.293 550.141C536.419 550.901 536.484 551.597 536.484 552.231C536.484 552.864 536.484 553.497 536.484 554.13C536.611 554.636 536.672 555.016 536.672 555.269V556.219C536.672 556.346 536.737 556.409 536.864 556.409V555.269C536.864 555.016 536.864 554.636 536.864 554.13C536.99 553.497 537.055 552.864 537.055 552.231C537.055 551.597 537.055 550.901 537.055 550.141C537.181 549.381 537.243 548.558 537.243 547.672C537.373 546.659 537.434 545.709 537.434 544.823C537.434 543.809 537.499 542.733 537.625 541.593C537.625 540.454 537.625 539.314 537.625 538.174C537.752 537.035 537.817 535.769 537.817 534.375C537.817 533.109 537.817 531.843 537.817 530.577C537.943 529.184 538.005 527.791 538.005 526.398V522.219C538.005 521.206 538.069 520.51 538.196 520.129V500.185ZM569.588 472.263C569.588 470.617 569.523 468.591 569.397 466.185C569.27 463.779 568.826 461.5 568.065 459.347C567.303 457.194 566.1 455.358 564.45 453.838C562.93 452.192 560.644 451.369 557.601 451.369H550.751C549.357 451.496 548.151 452.066 547.136 453.079C546.122 454.092 545.616 455.295 545.616 456.688V499.425C545.616 500.818 546.122 502.021 547.136 503.034C548.151 504.048 549.357 504.554 550.751 504.554H557.601C560.644 504.554 562.93 503.794 564.45 502.275C566.1 500.755 567.303 498.919 568.065 496.766C568.826 494.487 569.27 492.208 569.397 489.928C569.523 487.522 569.588 485.496 569.588 483.85V472.263ZM582.334 576.354C582.334 576.354 582.27 576.29 582.143 576.163L581.955 575.974C581.825 575.721 581.699 575.467 581.573 575.214C581.573 574.961 581.446 574.707 581.193 574.454C581.067 574.074 580.941 573.694 580.811 573.314C580.684 572.808 580.558 572.238 580.432 571.605C580.179 570.339 580.052 569.136 580.052 567.996C579.926 567.363 579.861 566.73 579.861 566.096C579.861 565.337 579.861 564.514 579.861 563.627V553.56C579.861 552.674 579.861 551.787 579.861 550.901C579.861 550.014 579.926 549.065 580.052 548.051C580.052 547.165 580.052 546.279 580.052 545.392C580.052 544.506 579.987 543.619 579.861 542.733V540.074C579.861 538.808 579.796 537.921 579.67 537.415C579.67 536.528 579.608 535.705 579.482 534.945C579.482 534.059 579.417 533.236 579.29 532.476C579.038 530.703 578.782 529.184 578.529 527.917C578.402 527.284 578.276 526.714 578.149 526.208C578.023 525.575 577.832 524.942 577.579 524.308C577.323 523.675 577.135 523.169 577.008 522.789C576.882 522.409 576.691 522.029 576.438 521.649C576.182 521.269 575.994 520.953 575.864 520.699C575.738 520.446 575.611 520.193 575.485 519.94C575.358 519.94 575.232 519.876 575.105 519.75C574.979 519.75 574.914 519.687 574.914 519.56L575.105 519.75C575.105 519.876 575.167 520.003 575.293 520.129C575.293 520.256 575.293 520.383 575.293 520.51C575.423 520.51 575.485 520.636 575.485 520.889C575.611 521.016 575.676 521.143 575.676 521.269C575.676 521.396 575.738 521.586 575.864 521.839C575.994 522.346 576.182 523.232 576.438 524.498C576.564 525.132 576.626 525.765 576.626 526.398C576.752 527.031 576.882 527.664 577.008 528.297C577.008 528.93 577.008 529.627 577.008 530.387C577.135 531.02 577.196 531.779 577.196 532.666V556.219C577.196 556.726 577.196 557.169 577.196 557.549C577.323 557.929 577.388 558.372 577.388 558.878C577.388 559.765 577.388 560.651 577.388 561.538C577.514 562.298 577.64 563.057 577.767 563.817C577.897 564.577 577.958 565.337 577.958 566.096C578.085 566.856 578.211 567.553 578.337 568.186C578.594 568.946 578.782 569.642 578.911 570.275C579.038 570.782 579.226 571.352 579.482 571.985C579.735 572.618 579.926 573.125 580.052 573.504C580.179 573.884 580.367 574.264 580.623 574.644L581.002 575.024C581.128 575.15 581.193 575.277 581.193 575.404C581.193 575.404 581.255 575.467 581.381 575.594L582.143 576.354H582.334Z" fill="#F4EDE8"/>
<path d="M651.748 483.85C651.748 489.168 650.478 494.044 647.943 498.476C645.404 502.908 641.981 506.453 637.67 509.113C641.981 511.645 645.404 515.191 647.943 519.75C650.478 524.182 651.748 529.057 651.748 534.375V546.722C651.619 550.774 650.795 554.573 649.275 558.119C647.751 561.538 645.66 564.577 642.996 567.236C640.331 569.769 637.226 571.795 633.673 573.314C630.123 574.834 626.317 575.594 622.259 575.594H604.183C603.422 575.594 602.725 575.277 602.092 574.644C601.457 574.011 601.139 573.314 601.139 572.555C601.139 573.314 600.822 574.011 600.19 574.644C599.681 575.277 598.984 575.594 598.096 575.594H588.202C588.202 574.454 588.393 573.631 588.772 573.125C589.281 572.618 589.787 572.112 590.296 571.605C590.802 570.972 591.246 570.149 591.628 569.136C592.134 568.122 592.387 566.54 592.387 564.387V518.04C592.008 514.115 590.231 511.265 587.061 509.493C588.455 508.606 590.231 508.163 592.387 508.163V453.838C592.387 451.686 592.134 450.103 591.628 449.09C591.246 448.077 590.802 447.317 590.296 446.81C589.787 446.177 589.281 445.608 588.772 445.101C588.393 444.595 588.202 443.771 588.202 442.632H598.287C599.045 442.632 599.745 442.948 600.378 443.582C601.013 444.088 601.331 444.784 601.331 445.671C601.331 443.645 602.345 442.632 604.375 442.632H622.259C626.317 442.632 630.123 443.391 633.673 444.911C637.226 446.431 640.331 448.52 642.996 451.179C645.66 453.712 647.751 456.751 649.275 460.296C650.795 463.842 651.619 467.578 651.748 471.503V483.85ZM602.663 500.185C602.663 499.552 602.598 498.856 602.472 498.096C602.472 497.336 602.472 496.576 602.472 495.816V491.638C602.345 488.852 602.28 486.193 602.28 483.66C602.28 481.127 602.219 478.721 602.092 476.442C601.963 475.429 601.901 474.416 601.901 473.403C601.901 472.39 601.836 471.44 601.71 470.554C601.71 469.541 601.648 468.654 601.519 467.895C601.519 467.135 601.519 466.438 601.519 465.805C601.519 465.172 601.457 464.602 601.331 464.096C601.331 463.589 601.331 463.146 601.331 462.766V461.816C601.204 461.816 601.139 461.88 601.139 462.006V462.766C601.139 463.146 601.078 463.589 600.948 464.096C600.948 464.602 600.948 465.172 600.948 465.805C600.948 466.438 600.887 467.135 600.76 467.895C600.76 468.654 600.76 469.541 600.76 470.554C600.634 471.44 600.569 472.39 600.569 473.403C600.569 474.416 600.504 475.429 600.378 476.442C600.251 478.721 600.19 481.127 600.19 483.66C600.19 486.193 600.125 488.852 599.998 491.638V495.816C599.998 496.576 599.934 497.336 599.807 498.096C599.807 498.856 599.807 499.552 599.807 500.185V517.85C599.807 518.863 599.872 519.623 599.998 520.129V526.398C599.998 527.791 599.998 529.184 599.998 530.577C600.125 531.843 600.19 533.109 600.19 534.375C600.19 535.769 600.19 537.035 600.19 538.174C600.316 539.314 600.378 540.454 600.378 541.593C600.504 542.733 600.569 543.809 600.569 544.823C600.569 545.709 600.634 546.659 600.76 547.672C600.76 548.558 600.76 549.381 600.76 550.141C600.887 550.901 600.948 551.597 600.948 552.231C600.948 552.864 600.948 553.497 600.948 554.13C601.078 554.636 601.139 555.016 601.139 555.269V556.219C601.139 556.346 601.204 556.409 601.331 556.409V555.269C601.331 555.016 601.331 554.636 601.331 554.13C601.457 553.497 601.519 552.864 601.519 552.231C601.519 551.597 601.519 550.901 601.519 550.141C601.648 549.381 601.71 548.558 601.71 547.672C601.836 546.659 601.901 545.709 601.901 544.823C601.901 543.809 601.963 542.733 602.092 541.593C602.092 540.454 602.092 539.314 602.092 538.174C602.219 537.035 602.28 535.769 602.28 534.375C602.28 533.109 602.28 531.843 602.28 530.577C602.407 529.184 602.472 527.791 602.472 526.398V522.219C602.472 521.206 602.533 520.51 602.663 520.129V500.185ZM641.855 544.253C641.728 544.506 641.663 544.823 641.663 545.202V549.571C641.537 550.078 641.472 550.584 641.472 551.091C641.472 551.471 641.472 551.85 641.472 552.231C641.472 552.484 641.411 552.673 641.284 552.8C641.284 552.927 641.284 553.117 641.284 553.37V554.51C641.158 554.763 641.093 555.08 641.093 555.459C641.093 555.713 641.028 555.966 640.902 556.219C640.902 556.473 640.84 556.663 640.714 556.789V557.169L640.522 557.549C640.522 557.549 640.649 557.486 640.902 557.359V557.169L641.093 556.979C641.219 556.853 641.284 556.789 641.284 556.789C641.284 556.663 641.346 556.536 641.472 556.409C641.599 556.156 641.728 555.903 641.855 555.649C641.981 555.269 642.108 554.953 642.234 554.7C642.36 554.446 642.425 554.32 642.425 554.32C642.425 554.193 642.487 554.003 642.613 553.75C642.743 553.497 642.805 553.307 642.805 553.18C642.805 553.054 642.869 552.864 642.996 552.61C643.122 552.357 643.187 552.167 643.187 552.04C643.187 551.787 643.249 551.534 643.375 551.281C643.375 551.027 643.375 550.837 643.375 550.711C643.501 550.458 643.566 550.204 643.566 549.951C643.693 549.445 643.758 548.938 643.758 548.432C643.884 547.925 644.01 547.418 644.137 546.912C644.263 546.532 644.328 545.962 644.328 545.202C644.328 544.949 644.328 544.696 644.328 544.442C644.455 544.19 644.516 543.936 644.516 543.683V537.035C644.516 536.275 644.455 535.705 644.328 535.325V534.565C644.328 534.312 644.263 534.186 644.137 534.186C644.137 534.059 644.137 533.932 644.137 533.806C644.137 533.173 644.072 532.666 643.946 532.286C643.946 531.779 643.884 531.273 643.758 530.766C643.631 530.513 643.566 530.26 643.566 530.007C643.566 529.754 643.501 529.5 643.375 529.247C643.375 529.12 643.313 529.057 643.187 529.057C643.187 528.93 643.187 528.804 643.187 528.677C643.187 528.551 643.122 528.487 642.996 528.487C642.996 528.361 642.996 528.234 642.996 528.107C642.869 527.854 642.805 527.664 642.805 527.537C642.805 527.411 642.743 527.221 642.613 526.968C642.487 526.714 642.425 526.524 642.425 526.398C642.425 526.271 642.36 526.081 642.234 525.828C642.108 525.701 642.043 525.575 642.043 525.448C642.043 525.321 641.981 525.195 641.855 525.068C641.599 524.562 641.472 524.308 641.472 524.308C641.346 524.182 641.284 524.119 641.284 524.119C641.284 523.992 641.219 523.865 641.093 523.738C640.967 523.612 640.902 523.485 640.902 523.359L640.522 522.979C640.522 522.979 640.584 523.105 640.714 523.359V523.738C640.84 523.865 640.902 524.119 640.902 524.498C640.902 524.625 640.902 524.752 640.902 524.878C641.028 524.878 641.093 525.005 641.093 525.258C641.093 525.638 641.158 525.955 641.284 526.208V527.157C641.284 527.411 641.284 527.601 641.284 527.728C641.411 527.854 641.472 528.044 641.472 528.297C641.472 529.437 641.537 530.323 641.663 530.956V533.996C641.79 534.629 641.855 535.642 641.855 537.035V544.253ZM634.052 534.375C634.052 532.729 633.99 530.703 633.864 528.297C633.738 525.891 633.294 523.612 632.532 521.459C631.77 519.306 630.564 517.47 628.917 515.951C627.394 514.305 625.112 513.482 622.068 513.482H615.218C613.824 513.608 612.618 514.178 611.603 515.191C610.589 516.204 610.083 517.407 610.083 518.8V561.538C610.083 562.931 610.589 564.134 611.603 565.147C612.618 566.16 613.824 566.666 615.218 566.666H622.068C625.112 566.666 627.394 565.907 628.917 564.387C630.564 562.867 631.77 561.031 632.532 558.878C633.294 556.599 633.738 554.32 633.864 552.04C633.99 549.635 634.052 547.608 634.052 545.962V534.375ZM634.052 472.263C634.052 470.617 633.99 468.591 633.864 466.185C633.738 463.779 633.294 461.5 632.532 459.347C631.77 457.194 630.564 455.358 628.917 453.838C627.394 452.192 625.112 451.369 622.068 451.369H615.218C613.824 451.496 612.618 452.066 611.603 453.079C610.589 454.092 610.083 455.295 610.083 456.688V499.425C610.083 500.818 610.589 502.021 611.603 503.034C612.618 504.048 613.824 504.554 615.218 504.554H622.068C625.112 504.554 627.394 503.794 628.917 502.275C630.564 500.755 631.77 498.919 632.532 496.766C633.294 494.487 633.738 492.208 633.864 489.928C633.99 487.522 634.052 485.496 634.052 483.85V472.263ZM642.234 491.068C642.36 490.815 642.425 490.688 642.425 490.688C642.425 490.561 642.487 490.371 642.613 490.118C642.743 489.865 642.805 489.675 642.805 489.548C642.805 489.295 642.869 489.042 642.996 488.789C643.122 488.535 643.187 488.345 643.187 488.219C643.187 488.092 643.249 487.902 643.375 487.649C643.375 487.395 643.375 487.206 643.375 487.079C643.501 486.826 643.566 486.572 643.566 486.319C643.693 485.813 643.758 485.306 643.758 484.8C643.884 484.293 644.01 483.786 644.137 483.28C644.263 482.9 644.328 482.33 644.328 481.571C644.328 481.317 644.328 481.064 644.328 480.811C644.455 480.558 644.516 480.304 644.516 480.051V473.403C644.516 472.643 644.455 472.073 644.328 471.694V470.934C644.328 470.68 644.263 470.554 644.137 470.554C644.137 470.427 644.137 470.237 644.137 469.984C644.137 469.351 644.01 468.401 643.758 467.135C643.631 466.881 643.566 466.628 643.566 466.375C643.566 466.122 643.501 465.868 643.375 465.615C643.375 465.489 643.313 465.425 643.187 465.425C643.187 465.299 643.187 465.172 643.187 465.045C643.187 464.919 643.122 464.855 642.996 464.855C642.996 464.729 642.996 464.602 642.996 464.476C642.869 464.222 642.805 464.032 642.805 463.905C642.805 463.779 642.743 463.589 642.613 463.336C642.487 463.082 642.425 462.892 642.425 462.766C642.425 462.639 642.36 462.449 642.234 462.196C642.108 462.069 642.043 461.943 642.043 461.816C642.043 461.69 641.981 461.563 641.855 461.436C641.599 460.93 641.472 460.677 641.472 460.677C641.346 460.55 641.284 460.487 641.284 460.487C641.284 460.36 641.219 460.233 641.093 460.107C640.967 459.98 640.902 459.854 640.902 459.727C640.775 459.6 640.714 459.473 640.714 459.347H640.522C640.522 459.347 640.584 459.473 640.714 459.727V460.107C640.84 460.233 640.902 460.487 640.902 460.867C640.902 460.993 640.902 461.12 640.902 461.246C641.028 461.246 641.093 461.373 641.093 461.626C641.093 462.006 641.158 462.323 641.284 462.576V463.526C641.284 463.779 641.284 463.969 641.284 464.096C641.411 464.222 641.472 464.412 641.472 464.665C641.472 465.805 641.537 466.691 641.663 467.325V470.364C641.79 470.997 641.855 472.01 641.855 473.403V480.621C641.728 480.874 641.663 481.191 641.663 481.571V485.939C641.537 486.446 641.472 486.952 641.472 487.459C641.472 487.839 641.472 488.219 641.472 488.599C641.472 488.852 641.411 489.042 641.284 489.168C641.284 489.295 641.284 489.485 641.284 489.738V490.878C641.158 491.131 641.093 491.448 641.093 491.828C641.093 492.081 641.028 492.334 640.902 492.588C640.902 492.841 640.84 493.031 640.714 493.157V493.537L640.522 493.917C640.522 493.917 640.649 493.854 640.902 493.727V493.537L641.093 493.347C641.219 493.221 641.284 493.157 641.284 493.157C641.284 493.031 641.346 492.904 641.472 492.777C641.599 492.524 641.728 492.271 641.855 492.017C641.981 491.638 642.108 491.321 642.234 491.068Z" fill="#F4EDE8"/>
<path d="M716.595 564.007C716.595 566.286 716.783 567.996 717.165 569.136C717.671 570.149 718.18 570.972 718.685 571.605C719.194 572.112 719.638 572.618 720.018 573.125C720.527 573.631 720.78 574.454 720.78 575.594H669.03C668.268 575.594 667.571 575.277 666.939 574.644C666.303 574.011 665.986 573.314 665.986 572.555C665.986 573.314 665.668 574.011 665.036 574.644C664.527 575.277 663.83 575.594 662.942 575.594H653.048C653.048 574.454 653.239 573.631 653.619 573.125C654.128 572.618 654.633 572.112 655.142 571.605C655.648 570.972 656.092 570.149 656.475 569.136C656.98 568.122 657.233 566.54 657.233 564.387V518.04C656.854 514.115 655.077 511.265 651.907 509.493C653.304 508.606 655.077 508.163 657.233 508.163V453.838C657.233 451.686 656.98 450.103 656.475 449.09C656.092 448.077 655.648 447.317 655.142 446.81C654.633 446.177 654.128 445.608 653.619 445.101C653.239 444.595 653.048 443.771 653.048 442.632H663.133C663.895 442.632 664.592 442.948 665.224 443.582C665.859 444.088 666.177 444.784 666.177 445.671C666.177 443.645 667.192 442.632 669.221 442.632H720.78C720.78 443.771 720.527 444.595 720.018 445.101C719.638 445.608 719.194 446.177 718.685 446.81C718.18 447.317 717.671 448.14 717.165 449.28C716.783 450.293 716.595 451.939 716.595 454.218V479.481C712.153 479.481 708.73 478.658 706.318 477.012C704.036 475.239 702.325 473.276 701.184 471.123C699.787 468.718 699.028 465.868 698.902 462.576V456.688C698.902 455.295 698.393 454.092 697.378 453.079C696.363 452.066 695.157 451.496 693.763 451.369H680.064C678.67 451.496 677.464 452.066 676.45 453.079C675.435 454.092 674.929 455.295 674.929 456.688V499.425C674.929 500.818 675.435 502.021 676.45 503.034C677.464 504.048 678.67 504.554 680.064 504.554H681.397C682.79 504.554 683.935 504.048 684.82 503.034C685.838 502.021 686.343 500.818 686.343 499.425V499.235C686.47 497.336 686.979 495.69 687.867 494.297C688.625 493.031 689.767 491.891 691.29 490.878C692.81 489.865 695.031 489.358 697.948 489.358V528.677C695.031 528.677 692.81 528.17 691.29 527.157C689.767 526.145 688.625 525.005 687.867 523.738C686.979 522.346 686.47 520.699 686.343 518.8C686.343 517.407 685.838 516.204 684.82 515.191C683.935 514.178 682.79 513.608 681.397 513.482H680.064C678.67 513.608 677.464 514.178 676.45 515.191C675.435 516.204 674.929 517.407 674.929 518.8V561.538C674.929 562.931 675.435 564.134 676.45 565.147C677.464 566.16 678.67 566.666 680.064 566.666H693.763C695.157 566.666 696.363 566.16 697.378 565.147C698.393 564.134 698.902 562.931 698.902 561.538V555.459C699.028 552.294 699.787 549.508 701.184 547.102C702.325 544.949 704.036 542.986 706.318 541.214C708.73 539.441 712.153 538.554 716.595 538.554V564.007ZM667.509 500.185C667.509 499.552 667.444 498.856 667.318 498.096C667.318 497.336 667.318 496.576 667.318 495.816V491.638C667.192 488.852 667.127 486.193 667.127 483.66C667.127 481.127 667.065 478.721 666.939 476.442C666.812 475.429 666.747 474.416 666.747 473.403C666.747 472.39 666.683 471.44 666.556 470.554C666.556 469.541 666.495 468.654 666.368 467.895C666.368 467.135 666.368 466.438 666.368 465.805C666.368 465.172 666.303 464.602 666.177 464.096C666.177 463.589 666.177 463.146 666.177 462.766V461.816C666.051 461.816 665.986 461.88 665.986 462.006V462.766C665.986 463.146 665.924 463.589 665.794 464.096C665.794 464.602 665.794 465.172 665.794 465.805C665.794 466.438 665.733 467.135 665.606 467.895C665.606 468.654 665.606 469.541 665.606 470.554C665.48 471.44 665.415 472.39 665.415 473.403C665.415 474.416 665.354 475.429 665.224 476.442C665.097 478.721 665.036 481.127 665.036 483.66C665.036 486.193 664.971 488.852 664.845 491.638V495.816C664.845 496.576 664.78 497.336 664.653 498.096C664.653 498.856 664.653 499.552 664.653 500.185V517.85C664.653 518.863 664.718 519.623 664.845 520.129V526.398C664.845 527.791 664.845 529.184 664.845 530.577C664.971 531.843 665.036 533.109 665.036 534.375C665.036 535.769 665.036 537.035 665.036 538.174C665.162 539.314 665.224 540.454 665.224 541.593C665.354 542.733 665.415 543.809 665.415 544.823C665.415 545.709 665.48 546.659 665.606 547.672C665.606 548.558 665.606 549.381 665.606 550.141C665.733 550.901 665.794 551.597 665.794 552.231C665.794 552.864 665.794 553.497 665.794 554.13C665.924 554.636 665.986 555.016 665.986 555.269V556.219C665.986 556.346 666.051 556.409 666.177 556.409V555.269C666.177 555.016 666.177 554.636 666.177 554.13C666.303 553.497 666.368 552.864 666.368 552.231C666.368 551.597 666.368 550.901 666.368 550.141C666.495 549.381 666.556 548.558 666.556 547.672C666.683 546.659 666.747 545.709 666.747 544.823C666.747 543.809 666.812 542.733 666.939 541.593C666.939 540.454 666.939 539.314 666.939 538.174C667.065 537.035 667.127 535.769 667.127 534.375C667.127 533.109 667.127 531.843 667.127 530.577C667.253 529.184 667.318 527.791 667.318 526.398V522.219C667.318 521.206 667.383 520.51 667.509 520.129V500.185Z" fill="#F4EDE8"/>
<path d="M793.13 583.571C794.524 583.825 795.474 584.268 795.983 584.901C796.618 585.534 797.062 586.167 797.315 586.801C797.568 587.561 797.695 588.384 797.695 589.27C793.636 589.27 789.83 588.763 786.281 587.75C782.728 586.737 779.557 585.091 776.766 582.812C774.105 580.532 771.946 577.557 770.299 573.884C768.776 570.212 768.017 565.717 768.017 560.398V534.375C768.017 532.729 767.952 530.703 767.826 528.297C767.699 525.891 767.255 523.612 766.494 521.459C765.732 519.306 764.529 517.47 762.879 515.951C761.355 514.305 759.073 513.482 756.029 513.482H748.23C747.089 513.735 746.074 514.368 745.186 515.381C744.424 516.267 744.045 517.344 744.045 518.61V564.007C744.045 566.286 744.233 567.996 744.615 569.136C745.121 570.149 745.63 570.972 746.136 571.605C746.645 572.112 747.089 572.618 747.468 573.125C747.974 573.631 748.23 574.454 748.23 575.594H738.145C737.383 575.594 736.686 575.277 736.054 574.644C735.419 574.011 735.101 573.314 735.101 572.555C735.101 573.314 734.783 574.011 734.151 574.644C733.642 575.277 732.945 575.594 732.057 575.594H722.164C722.164 574.454 722.355 573.631 722.734 573.125C723.243 572.618 723.749 572.112 724.258 571.605C724.763 570.972 725.208 570.149 725.59 569.136C726.096 568.122 726.349 566.54 726.349 564.387V518.04C725.969 514.115 724.193 511.265 721.023 509.493C722.417 508.606 724.193 508.163 726.349 508.163V453.838C726.349 451.686 726.096 450.103 725.59 449.09C725.208 448.077 724.763 447.317 724.258 446.81C723.749 446.177 723.243 445.608 722.734 445.101C722.355 444.595 722.164 443.771 722.164 442.632H732.248C733.01 442.632 733.707 442.948 734.339 443.582C734.975 444.088 735.292 444.784 735.292 445.671C735.292 443.645 736.307 442.632 738.336 442.632H756.221C760.279 442.632 764.085 443.391 767.635 444.911C771.187 446.431 774.293 448.52 776.958 451.179C779.622 453.712 781.713 456.751 783.237 460.297C784.757 463.842 785.584 467.578 785.71 471.503V483.85C785.71 489.168 784.439 494.044 781.904 498.476C779.366 502.908 775.943 506.453 771.632 509.113C775.943 511.645 779.366 515.191 781.904 519.75C784.439 524.182 785.71 529.057 785.71 534.375V559.638C785.71 562.298 785.71 565.02 785.71 567.806C785.837 570.465 786.154 572.935 786.66 575.214C787.169 577.367 787.927 579.203 788.942 580.722C789.957 582.242 791.354 583.192 793.13 583.571ZM775.817 480.621C775.69 480.874 775.625 481.191 775.625 481.571V485.939C775.499 486.446 775.434 486.952 775.434 487.459C775.434 487.839 775.434 488.219 775.434 488.599C775.434 488.852 775.372 489.042 775.246 489.168C775.246 489.295 775.246 489.485 775.246 489.738V490.878C775.12 491.131 775.055 491.448 775.055 491.828C775.055 492.081 774.99 492.334 774.864 492.588C774.864 492.841 774.802 493.031 774.675 493.157V493.537L774.484 493.917C774.484 493.917 774.611 493.854 774.864 493.727V493.537L775.055 493.347C775.181 493.221 775.246 493.157 775.246 493.157C775.246 493.031 775.308 492.904 775.434 492.777C775.564 492.524 775.69 492.271 775.817 492.017C775.943 491.638 776.069 491.321 776.196 491.068C776.322 490.815 776.387 490.688 776.387 490.688C776.387 490.561 776.449 490.371 776.578 490.118C776.705 489.865 776.766 489.675 776.766 489.548C776.766 489.295 776.831 489.042 776.958 488.789C777.084 488.535 777.149 488.345 777.149 488.219C777.149 488.092 777.21 487.902 777.337 487.649C777.337 487.395 777.337 487.206 777.337 487.079C777.463 486.826 777.528 486.572 777.528 486.319C777.655 485.813 777.719 485.306 777.719 484.8C777.846 484.293 777.972 483.786 778.099 483.28C778.225 482.9 778.29 482.33 778.29 481.571C778.29 481.317 778.29 481.064 778.29 480.811C778.416 480.558 778.478 480.304 778.478 480.051V473.403C778.478 472.643 778.416 472.073 778.29 471.694V470.934C778.29 470.68 778.225 470.554 778.099 470.554C778.099 470.427 778.099 470.237 778.099 469.984C778.099 469.351 777.972 468.401 777.719 467.135C777.593 466.881 777.528 466.628 777.528 466.375C777.528 466.122 777.463 465.868 777.337 465.615C777.337 465.489 777.275 465.425 777.149 465.425C777.149 465.299 777.149 465.172 777.149 465.045C777.149 464.919 777.084 464.855 776.958 464.855C776.958 464.729 776.958 464.602 776.958 464.476C776.831 464.222 776.766 464.032 776.766 463.905C776.766 463.779 776.705 463.589 776.578 463.336C776.449 463.082 776.387 462.892 776.387 462.766C776.387 462.639 776.322 462.449 776.196 462.196C776.069 462.069 776.005 461.943 776.005 461.816C776.005 461.69 775.943 461.563 775.817 461.436C775.564 460.93 775.434 460.677 775.434 460.677C775.308 460.55 775.246 460.487 775.246 460.487C775.246 460.36 775.181 460.233 775.055 460.107C774.928 459.98 774.864 459.854 774.864 459.727C774.737 459.6 774.675 459.473 774.675 459.347H774.484C774.484 459.347 774.549 459.473 774.675 459.727V460.107C774.802 460.233 774.864 460.487 774.864 460.867C774.864 460.993 774.864 461.12 774.864 461.246C774.99 461.246 775.055 461.373 775.055 461.626C775.055 462.006 775.12 462.323 775.246 462.576V463.526C775.246 463.779 775.246 463.969 775.246 464.096C775.372 464.222 775.434 464.412 775.434 464.665C775.434 465.805 775.499 466.691 775.625 467.325V470.364C775.752 470.997 775.817 472.01 775.817 473.403V480.621ZM736.625 500.185C736.625 499.552 736.56 498.856 736.433 498.096C736.433 497.336 736.433 496.576 736.433 495.816V491.638C736.307 488.852 736.242 486.193 736.242 483.66C736.242 481.127 736.181 478.721 736.054 476.442C735.925 475.429 735.863 474.416 735.863 473.403C735.863 472.39 735.798 471.44 735.672 470.554C735.672 469.541 735.61 468.654 735.484 467.895C735.484 467.135 735.484 466.438 735.484 465.805C735.484 465.172 735.419 464.602 735.292 464.096C735.292 463.589 735.292 463.146 735.292 462.766V461.816C735.166 461.816 735.101 461.88 735.101 462.006V462.766C735.101 463.146 735.04 463.589 734.91 464.096C734.91 464.602 734.91 465.172 734.91 465.805C734.91 466.438 734.848 467.135 734.722 467.895C734.722 468.654 734.722 469.541 734.722 470.554C734.595 471.44 734.531 472.39 734.531 473.403C734.531 474.416 734.469 475.429 734.339 476.442C734.213 478.721 734.151 481.127 734.151 483.66C734.151 486.193 734.087 488.852 733.96 491.638V495.816C733.96 496.576 733.895 497.336 733.769 498.096C733.769 498.856 733.769 499.552 733.769 500.185V517.85C733.769 518.863 733.834 519.623 733.96 520.129V526.398C733.96 527.791 733.96 529.184 733.96 530.577C734.087 531.843 734.151 533.109 734.151 534.375C734.151 535.769 734.151 537.035 734.151 538.174C734.278 539.314 734.339 540.454 734.339 541.593C734.469 542.733 734.531 543.809 734.531 544.823C734.531 545.709 734.595 546.659 734.722 547.672C734.722 548.558 734.722 549.381 734.722 550.141C734.848 550.901 734.91 551.597 734.91 552.231C734.91 552.864 734.91 553.497 734.91 554.13C735.04 554.636 735.101 555.016 735.101 555.269V556.219C735.101 556.346 735.166 556.409 735.292 556.409V555.269C735.292 555.016 735.292 554.636 735.292 554.13C735.419 553.497 735.484 552.864 735.484 552.231C735.484 551.597 735.484 550.901 735.484 550.141C735.61 549.381 735.672 548.558 735.672 547.672C735.798 546.659 735.863 545.709 735.863 544.823C735.863 543.809 735.925 542.733 736.054 541.593C736.054 540.454 736.054 539.314 736.054 538.174C736.181 537.035 736.242 535.769 736.242 534.375C736.242 533.109 736.242 531.843 736.242 530.577C736.369 529.184 736.433 527.791 736.433 526.398V522.219C736.433 521.206 736.498 520.51 736.625 520.129V500.185ZM768.017 472.263C768.017 470.617 767.952 468.591 767.826 466.185C767.699 463.779 767.255 461.5 766.494 459.347C765.732 457.194 764.529 455.358 762.879 453.838C761.355 452.192 759.073 451.369 756.029 451.369H749.18C747.786 451.496 746.58 452.066 745.565 453.079C744.551 454.092 744.045 455.295 744.045 456.688V499.425C744.045 500.818 744.551 502.021 745.565 503.034C746.58 504.048 747.786 504.554 749.18 504.554H756.029C759.073 504.554 761.355 503.794 762.879 502.275C764.529 500.755 765.732 498.919 766.494 496.766C767.255 494.487 767.699 492.208 767.826 489.928C767.952 487.522 768.017 485.496 768.017 483.85V472.263ZM780.763 576.354C780.763 576.354 780.699 576.29 780.572 576.163L780.381 575.974C780.254 575.721 780.128 575.467 780.002 575.214C780.002 574.961 779.875 574.707 779.622 574.454C779.493 574.074 779.366 573.694 779.24 573.314C779.113 572.808 778.987 572.238 778.86 571.605C778.608 570.339 778.478 569.136 778.478 567.996C778.352 567.363 778.29 566.73 778.29 566.096C778.29 565.337 778.29 564.514 778.29 563.627V553.56C778.29 552.674 778.29 551.787 778.29 550.901C778.29 550.014 778.352 549.065 778.478 548.051C778.478 547.165 778.478 546.279 778.478 545.392C778.478 544.506 778.416 543.619 778.29 542.733V540.074C778.29 538.808 778.225 537.921 778.099 537.415C778.099 536.528 778.037 535.705 777.907 534.945C777.907 534.059 777.846 533.236 777.719 532.476C777.463 530.703 777.21 529.184 776.958 527.917C776.831 527.284 776.705 526.714 776.578 526.208C776.449 525.575 776.261 524.942 776.005 524.308C775.752 523.675 775.564 523.169 775.434 522.789C775.308 522.409 775.12 522.029 774.864 521.649C774.611 521.269 774.419 520.953 774.293 520.699C774.167 520.446 774.04 520.193 773.914 519.94C773.787 519.94 773.661 519.876 773.534 519.75C773.405 519.75 773.343 519.687 773.343 519.56L773.534 519.75C773.534 519.876 773.596 520.003 773.722 520.129C773.722 520.256 773.722 520.383 773.722 520.51C773.849 520.51 773.914 520.636 773.914 520.889C774.04 521.016 774.105 521.143 774.105 521.269C774.105 521.396 774.167 521.586 774.293 521.839C774.419 522.346 774.611 523.232 774.864 524.498C774.99 525.132 775.055 525.765 775.055 526.398C775.181 527.031 775.308 527.664 775.434 528.297C775.434 528.93 775.434 529.627 775.434 530.387C775.564 531.02 775.625 531.779 775.625 532.666V556.219C775.625 556.726 775.625 557.169 775.625 557.549C775.752 557.929 775.817 558.372 775.817 558.878C775.817 559.765 775.817 560.651 775.817 561.538C775.943 562.298 776.069 563.057 776.196 563.817C776.322 564.577 776.387 565.337 776.387 566.096C776.514 566.856 776.64 567.553 776.766 568.186C777.022 568.946 777.21 569.642 777.337 570.275C777.463 570.782 777.655 571.352 777.907 571.985C778.164 572.618 778.352 573.125 778.478 573.504C778.608 573.884 778.796 574.264 779.052 574.644L779.431 575.024C779.557 575.15 779.622 575.277 779.622 575.404C779.622 575.404 779.684 575.467 779.81 575.594L780.572 576.354H780.763Z" fill="#F4EDE8"/>
<path d="M836.449 501.922C842.078 501.922 846.641 506.478 846.641 512.098C846.641 517.718 842.078 522.273 836.449 522.273C830.82 522.273 826.256 517.718 826.256 512.098C826.256 506.478 830.82 501.922 836.449 501.922Z" fill="#999591"/>
<path d="M187.55 501.922C193.179 501.922 197.742 506.478 197.742 512.098C197.742 517.718 193.179 522.273 187.55 522.273C181.921 522.273 177.358 517.718 177.358 512.098C177.358 506.478 181.921 501.922 187.55 501.922Z" fill="#999591"/>
</g>
<defs>
<clipPath id="clip0">
<rect width="778" height="454" fill="white" transform="translate(123 285)"/>
</clipPath>
</defs>
</svg>
